<svg width="32" height="32" viewBox="0 0 32 32" fill="none" xmlns="http://www.w3.org/2000/svg">
<path d="M2.66675 10.0953C2.66675 6.8765 2.66675 5.26709 3.53942 4.17279C3.72617 3.93862 3.93862 3.72617 4.17279 3.53942C5.26709 2.66675 6.8765 2.66675 10.0953 2.66675H21.9048C25.1237 2.66675 26.7331 2.66675 27.8274 3.53942C28.0615 3.72617 28.274 3.93862 28.4607 4.17279C29.3334 5.26709 29.3334 6.8765 29.3334 10.0953C29.3334 14.3871 29.3334 16.533 28.1698 17.992C27.9209 18.3043 27.6376 18.5875 27.3254 18.8365C25.8663 20.0001 23.7204 20.0001 19.4287 20.0001H12.5715C8.27975 20.0001 6.13387 20.0001 4.6748 18.8365C4.36258 18.5875 4.0793 18.3043 3.83031 17.992C2.66675 16.533 2.66675 14.3871 2.66675 10.0953Z" stroke="#3174CD" stroke-width="2"/>
<path d="M9.33303 23.3333L8.9242 23.9465C8.40552 24.7245 8.58498 25.7722 9.33303 26.3333C10.0811 26.8943 10.2605 27.942 9.74186 28.72L9.33303 29.3333M15.9997 23.3333L15.5909 23.9465C15.0722 24.7245 15.2516 25.7722 15.9997 26.3333C16.7477 26.8943 16.9272 27.942 16.4085 28.72L15.9997 29.3333M22.6664 23.3333L22.2575 23.9465C21.7388 24.7245 21.9183 25.7722 22.6664 26.3333C23.4144 26.8943 23.5939 27.942 23.0752 28.72L22.6664 29.3333" stroke="#3174CD" stroke-width="2" stroke-linecap="round"/>
<path d="M23.9997 19.3333C23.9997 18.7138 23.9997 18.404 23.9484 18.1464C23.738 17.0886 22.9111 16.2617 21.8532 16.0512C21.5956 16 21.2859 16 20.6663 16H11.9997C10.7572 16 10.1359 16 9.64584 16.203C8.99243 16.4736 8.4733 16.9928 8.20265 17.6462C8.03971 18.0395 8.00756 18.5174 8.00122 19.3333" stroke="#3174CD" stroke-width="2" stroke-linecap="round"/>
<path d="M8 11.3333H24" stroke="#3174CD" stroke-width="2" stroke-linecap="round"/>
<path d="M8 8H24" stroke="#3174CD" stroke-width="2" stroke-linecap="round"/>
</svg>
