<svg width="30" height="26" viewBox="0 0 30 26" fill="none" xmlns="http://www.w3.org/2000/svg">
<path d="M28.3333 13H18.9999C18.1344 13 17.2923 12.7193 16.5999 12.2L13.3999 9.8C12.7075 9.28071 11.8654 9 10.9999 9H1.66658" stroke="#3174CD" stroke-width="2" stroke-linecap="round" stroke-linejoin="round"/>
<path d="M3 9V11.6667C3 16.695 3 19.2091 4.5621 20.7712C6.12419 22.3333 8.63835 22.3333 13.6667 22.3333H17.6667C21.4119 22.3333 23.2845 22.3333 24.6297 21.4345C25.2121 21.0454 25.7121 20.5454 26.1012 19.963C27 18.6178 27 16.7452 27 13" stroke="#3174CD" stroke-width="2" stroke-linecap="round" stroke-linejoin="round"/>
<path d="M23 22.3333V24.9999M7 22.3333V24.9999" stroke="#3174CD" stroke-width="2" stroke-linecap="round" stroke-linejoin="round"/>
<path d="M5.66675 9V3C5.66675 1.89543 6.56218 1 7.66675 1C8.77132 1 9.66675 1.89543 9.66675 3V3.66667" stroke="#3174CD" stroke-width="2" stroke-linecap="round" stroke-linejoin="round"/>
</svg>
