<svg width="24" height="30" viewBox="0 0 24 30" fill="none" xmlns="http://www.w3.org/2000/svg">
<path d="M8 19L4 28.3333" stroke="#3174CD" stroke-width="2" stroke-linecap="round"/>
<path d="M16 19L20 28.3333" stroke="#3174CD" stroke-width="2" stroke-linecap="round"/>
<path d="M12 19L12 28.3333" stroke="#3174CD" stroke-width="2" stroke-linecap="round"/>
<path d="M16.7401 6.99996C17.5302 6.26358 17.5302 5.06967 16.7401 4.33329C15.95 3.59691 15.95 2.40301 16.7401 1.66663M11.9993 6.99996C12.7895 6.26358 12.7895 5.06967 11.9993 4.33329C11.2092 3.59691 11.2092 2.40301 11.9993 1.66663M7.25861 6.99996C8.04873 6.26358 8.04873 5.06967 7.25861 4.33329C6.46848 3.59691 6.46848 2.40301 7.25861 1.66663" stroke="#3174CD" stroke-width="2" stroke-linecap="round"/>
<path d="M6 24.3334H18" stroke="#3174CD" stroke-width="2" stroke-linecap="round"/>
<path d="M11.9993 19C16.7155 19 20.617 15.521 21.264 10.996C21.3469 10.4162 21.3884 10.1262 21.1885 9.89643C20.9886 9.66663 20.6661 9.66663 20.0212 9.66663H3.97747C3.33258 9.66663 3.01013 9.66663 2.81023 9.89643C2.61033 10.1262 2.65178 10.4162 2.7347 10.996C3.38173 15.521 7.28315 19 11.9993 19Z" stroke="#3174CD" stroke-width="2" stroke-linecap="round" stroke-linejoin="round"/>
<path d="M21.334 12.3334H22.6673M2.66732 12.3334H1.33398" stroke="#3174CD" stroke-width="2" stroke-linecap="round"/>
</svg>
