<svg width="30" height="24" viewBox="0 0 30 24" fill="none" xmlns="http://www.w3.org/2000/svg">
<circle cx="7.00008" cy="17.3333" r="5.33333" stroke="#3174CD" stroke-width="2" stroke-linecap="round" stroke-linejoin="round"/>
<circle cx="23.0001" cy="17.3333" r="5.33333" stroke="#3174CD" stroke-width="2" stroke-linecap="round" stroke-linejoin="round"/>
<path d="M7 17.3334H12.8274C13.307 17.3334 13.7496 17.0759 13.9865 16.659L19.6667 6.66675" stroke="#3174CD" stroke-width="2" stroke-linecap="round" stroke-linejoin="round"/>
<path d="M15.0001 13.3333L8.33341 5.33325M8.33341 5.33325H5.66675M8.33341 5.33325H11.0001" stroke="#3174CD" stroke-width="2" stroke-linecap="round" stroke-linejoin="round"/>
<path d="M19.0681 2.54156L18.1009 2.79568L18.1022 2.80056L19.0681 2.54156ZM22.0686 17.5923C22.2117 18.1257 22.7601 18.4422 23.2935 18.2991C23.8269 18.1561 24.1434 17.6077 24.0004 17.0743L22.0686 17.5923ZM24.7042 4.56828C24.854 5.09985 25.4064 5.40929 25.938 5.25944C26.4696 5.10959 26.779 4.55719 26.6292 4.02563L24.7042 4.56828ZM19.0681 2.54156L18.1022 2.80056L22.0686 17.5923L23.0345 17.3333L24.0004 17.0743L20.034 2.28256L19.0681 2.54156ZM20.0596 1.33325V0.333252C19.5933 0.333252 18.9005 0.40315 18.4239 0.924407C17.9005 1.49685 17.9547 2.23924 18.1009 2.79567L19.0681 2.54156L20.0353 2.28744C20.0158 2.21337 20.0066 2.15937 20.0026 2.12273C19.9986 2.08599 20.0006 2.07298 20 2.07855C19.9993 2.0851 19.9955 2.11241 19.9788 2.1518C19.9706 2.17133 19.9598 2.19233 19.9461 2.21378C19.9324 2.23527 19.9168 2.2555 19.8999 2.27402C19.8653 2.31185 19.8318 2.33516 19.8095 2.34779C19.7885 2.35969 19.7802 2.36064 19.7926 2.3571C19.8052 2.35352 19.8327 2.34716 19.8793 2.34192C19.9256 2.33672 19.985 2.33325 20.0596 2.33325V1.33325ZM25.6667 4.29695L26.6292 4.02563C26.1611 2.36519 25.1016 1.40075 23.8299 0.889697C22.6227 0.404583 21.2417 0.333252 20.0596 0.333252V1.33325V2.33325C21.2111 2.33325 22.2587 2.41374 23.0842 2.74546C23.8451 3.05125 24.4224 3.56865 24.7042 4.56828L25.6667 4.29695Z" fill="#3174CD"/>
</svg>
