<svg width="30" height="22" viewBox="0 0 30 22" fill="none" xmlns="http://www.w3.org/2000/svg">
<circle cx="24.9993" cy="17" r="3.33333" stroke="#3174CD" stroke-width="2"/>
<circle cx="4.99935" cy="17" r="3.33333" stroke="#3174CD" stroke-width="2"/>
<path d="M25.9791 5.49271C27.6878 7.57192 28.2813 9.54888 28.3319 10.5942C27.4385 10.1856 26.4354 9.95648 25.3755 9.95648C22.1153 9.95648 19.1885 12.1243 18.4897 15.0122C18.3226 15.7026 18.239 16.0478 18.0576 16.1905C17.8762 16.3333 17.5837 16.3333 16.9986 16.3333H13.1601C12.5706 16.3333 12.2758 16.3333 12.0937 16.1886C11.9115 16.0438 11.8318 15.6998 11.6722 15.0117C11.0113 12.161 8.3283 9.6831 5.53532 9.89308C5.25387 9.91424 5.11314 9.92482 5.01661 9.90328C4.92007 9.88174 4.82287 9.82685 4.62848 9.71705C4.06731 9.40011 3.49349 9.09916 2.94325 8.76353C2.17667 8.29594 1.69688 7.47394 1.66673 6.57651C1.64956 6.06573 1.94331 5.55816 2.5367 5.6978L11.0976 7.71243C11.7407 7.86376 12.0622 7.93943 12.3385 7.88792C12.6148 7.83641 12.9535 7.60476 13.631 7.14149C15.3487 5.96687 18.0709 4.85735 20.7847 5.83759C21.5275 6.10592 21.899 6.24009 22.1106 6.2468C22.3222 6.25351 22.6323 6.16325 23.2525 5.98272C24.2568 5.69042 25.2021 5.53874 25.9791 5.49271ZM25.9791 5.49271C24.9081 4.18944 23.399 2.84598 21.3109 1.66663" stroke="#3174CD" stroke-width="2" stroke-linecap="round" stroke-linejoin="round"/>
</svg>
