<svg width="30" height="22" viewBox="0 0 30 22" fill="none" xmlns="http://www.w3.org/2000/svg">
<path d="M7 8.33329V1.66663M13.6667 8.33329V1.66663M20.3333 8.33329V2.33329" stroke="#3174CD" stroke-width="2" stroke-linecap="round" stroke-linejoin="round"/>
<path d="M5.68226 17.6666C3.78898 17.6666 2.84235 17.6666 2.25418 17.0808C1.66602 16.4951 1.66602 15.5522 1.66602 13.6666V5.66663C1.66602 3.78101 1.66602 2.8382 2.25418 2.25241C2.84235 1.66663 3.78898 1.66663 5.68226 1.66663H15.1282C19.7597 1.66663 22.0755 1.66663 23.8477 2.60828C25.1528 3.30173 26.2403 4.34063 26.9903 5.61044C28.0087 7.33477 28.1051 9.63921 28.298 14.248C28.3499 15.4903 28.3759 16.1115 28.1331 16.5815C27.9546 16.9271 27.6789 17.2134 27.3396 17.4055C26.8782 17.6666 26.254 17.6666 25.0055 17.6666H24.3327M10.9993 17.6666H18.9993" stroke="#3174CD" stroke-width="2" stroke-linecap="round" stroke-linejoin="round"/>
<path d="M27.666 12C28.2183 12 28.666 11.5523 28.666 11C28.666 10.4478 28.2183 10 27.666 10V12ZM22.5173 10.7013L21.9916 11.552L22.5173 10.7013ZM1.66602 7.33337C1.11373 7.33337 0.666016 7.78109 0.666016 8.33337C0.666016 8.88566 1.11373 9.33337 1.66602 9.33337V7.33337ZM20.7736 9.02807L21.5741 8.42873V8.42873L20.7736 9.02807ZM24.8048 11V12H27.666V11V10H24.8048V11ZM24.8048 11V10C24.1829 10 23.792 9.99881 23.4941 9.96801C23.2192 9.93959 23.1112 9.89282 23.043 9.85069L22.5173 10.7013L21.9916 11.552C22.4067 11.8086 22.841 11.9111 23.2884 11.9574C23.7127 12.0013 24.2239 12 24.8048 12V11ZM19.5086 8.33337V7.33337H1.66602V8.33337V9.33337H19.5086V8.33337ZM20.7736 9.02807L19.9732 9.62742C20.5093 10.3435 21.2834 11.1143 21.9916 11.552L22.5173 10.7013L23.043 9.85069C22.6055 9.58028 22.0069 9.00677 21.5741 8.42873L20.7736 9.02807ZM19.5086 8.33337V9.33337C19.6205 9.33337 19.807 9.40545 19.9732 9.62742L20.7736 9.02807L21.5741 8.42873C21.135 7.84216 20.4068 7.33337 19.5086 7.33337V8.33337Z" fill="#3174CD"/>
<circle cx="8.33268" cy="17.6667" r="2.66667" stroke="#3174CD" stroke-width="2"/>
<circle cx="21.6667" cy="17.6667" r="2.66667" stroke="#3174CD" stroke-width="2"/>
</svg>
