<svg width="20" height="20" viewBox="0 0 20 20" fill="none" xmlns="http://www.w3.org/2000/svg">
<path d="M1.66675 10C1.66675 6.85734 1.66675 5.286 2.64306 4.30968C3.61937 3.33337 5.19072 3.33337 8.33341 3.33337H11.6667C14.8094 3.33337 16.3808 3.33337 17.3571 4.30968C18.3334 5.286 18.3334 6.85734 18.3334 10V11.6667C18.3334 14.8094 18.3334 16.3808 17.3571 17.3571C16.3808 18.3334 14.8094 18.3334 11.6667 18.3334H8.33341C5.19072 18.3334 3.61937 18.3334 2.64306 17.3571C1.66675 16.3808 1.66675 14.8094 1.66675 11.6667V10Z" stroke="#3174CD"/>
<path d="M5.83325 3.33337V2.08337" stroke="#3174CD" stroke-linecap="round"/>
<path d="M14.1667 3.33337V2.08337" stroke="#3174CD" stroke-linecap="round"/>
<path d="M2.08325 7.5H17.9166" stroke="#3174CD" stroke-linecap="round"/>
<path d="M14.1663 13.833C14.3504 13.833 14.5002 13.9829 14.5002 14.167C14.5001 14.3509 14.3502 14.5 14.1663 14.5C13.9824 14.4998 13.8334 14.3508 13.8333 14.167C13.8333 13.983 13.9823 13.8332 14.1663 13.833ZM14.1663 10.5C14.3502 10.5 14.5001 10.6491 14.5002 10.833C14.5002 11.0171 14.3504 11.167 14.1663 11.167C13.9823 11.1668 13.8333 11.017 13.8333 10.833C13.8334 10.6492 13.9824 10.5002 14.1663 10.5Z" fill="#3174CD" stroke="#3174CD"/>
<path d="M9.99976 13.833C10.1839 13.833 10.3337 13.9829 10.3337 14.167C10.3336 14.3509 10.1837 14.5 9.99976 14.5C9.81592 14.4998 9.66692 14.3508 9.66675 14.167C9.66675 13.983 9.81581 13.8332 9.99976 13.833ZM9.99976 10.5C10.1837 10.5 10.3336 10.6491 10.3337 10.833C10.3337 11.0171 10.1839 11.167 9.99976 11.167C9.81581 11.1668 9.66675 11.017 9.66675 10.833C9.66692 10.6492 9.81592 10.5002 9.99976 10.5Z" fill="#3174CD" stroke="#3174CD"/>
<path d="M5.83301 13.833C6.0171 13.833 6.16699 13.9829 6.16699 14.167C6.16682 14.3509 6.01699 14.5 5.83301 14.5C5.64917 14.4998 5.50018 14.3508 5.5 14.167C5.5 13.983 5.64906 13.8332 5.83301 13.833ZM5.83301 10.5C6.01699 10.5 6.16682 10.6491 6.16699 10.833C6.16699 11.0171 6.0171 11.167 5.83301 11.167C5.64906 11.1668 5.5 11.017 5.5 10.833C5.50018 10.6492 5.64917 10.5002 5.83301 10.5Z" fill="#3174CD" stroke="#3174CD"/>
</svg>
