<svg width="24" height="25" viewBox="0 0 24 25" fill="none" xmlns="http://www.w3.org/2000/svg">
<path d="M2 21.5H22" stroke="#3174CD" stroke-width="1.5" stroke-linecap="round" stroke-linejoin="round"/>
<path d="M9 11.5H5C4.44772 11.5 4 11.9477 4 12.5V20.5C4 21.0523 4.44772 21.5 5 21.5H9C9.55228 21.5 10 21.0523 10 20.5V12.5C10 11.9477 9.55228 11.5 9 11.5Z" stroke="#3174CD" stroke-width="1.5" stroke-linejoin="round"/>
<path d="M19 2.5H11C10.4477 2.5 10 2.94772 10 3.5V20.5C10 21.0523 10.4477 21.5 11 21.5H19C19.5523 21.5 20 21.0523 20 20.5V3.5C20 2.94772 19.5523 2.5 19 2.5Z" stroke="#3174CD" stroke-width="1.5" stroke-linejoin="round"/>
<path d="M14 16.5042H16" stroke="#3174CD" stroke-width="2" stroke-linecap="round" stroke-linejoin="round"/>
<path d="M6 16.5042H8" stroke="#3174CD" stroke-width="1.5" stroke-linecap="round" stroke-linejoin="round"/>
<path d="M14 12.0042H16" stroke="#3174CD" stroke-width="1.5" stroke-linecap="round" stroke-linejoin="round"/>
<path d="M14 7.50415H16" stroke="#3174CD" stroke-width="1.5" stroke-linecap="round" stroke-linejoin="round"/>
</svg>
