<svg width="16" height="14" viewBox="0 0 16 14" fill="none" xmlns="http://www.w3.org/2000/svg">
<path d="M14.8 4.5C14.1375 4.5 13.6 5.17188 13.6 6C13.6 6.22188 13.64 6.42813 13.71 6.61875L11.9 7.975C11.515 8.2625 11.0175 8.1 10.795 7.6125L8.7575 3.15625C9.025 2.88125 9.2 2.46875 9.2 2C9.2 1.17188 8.6625 0.5 8 0.5C7.3375 0.5 6.8 1.17188 6.8 2C6.8 2.46875 6.975 2.88125 7.2425 3.15625L5.205 7.6125C4.9825 8.1 4.4825 8.2625 4.1 7.975L2.2925 6.61875C2.36 6.43125 2.4025 6.22188 2.4025 6C2.4025 5.17188 1.865 4.5 1.2025 4.5C0.54 4.5 0 5.17188 0 6C0 6.82812 0.5375 7.5 1.2 7.5C1.265 7.5 1.33 7.4875 1.3925 7.475L3.2 13.5H12.8L14.6075 7.475C14.67 7.4875 14.735 7.5 14.8 7.5C15.4625 7.5 16 6.82812 16 6C16 5.17188 15.4625 4.5 14.8 4.5Z" fill="white"/>
</svg>
