<svg width="28" height="29" viewBox="0 0 28 29" fill="none" xmlns="http://www.w3.org/2000/svg">
<g clip-path="url(#clip0_4833_6784)">
<path d="M23.1 25H4.9C4.515 25 4.2 25.3937 4.2 25.875V27.625C4.2 28.1063 4.515 28.5 4.9 28.5H23.1C23.485 28.5 23.8 28.1063 23.8 27.625V25.875C23.8 25.3937 23.485 25 23.1 25ZM25.9 7.5C24.7406 7.5 23.8 8.67578 23.8 10.125C23.8 10.5133 23.87 10.8742 23.9925 11.2078L20.825 13.5813C20.1512 14.0844 19.2806 13.8 18.8912 12.9469L15.3256 5.14844C15.7937 4.66719 16.1 3.94531 16.1 3.125C16.1 1.67578 15.1594 0.5 14 0.5C12.8406 0.5 11.9 1.67578 11.9 3.125C11.9 3.94531 12.2063 4.66719 12.6744 5.14844L9.10875 12.9469C8.71937 13.8 7.84437 14.0844 7.175 13.5813L4.01187 11.2078C4.13 10.8797 4.20437 10.5133 4.20437 10.125C4.20437 8.67578 3.26375 7.5 2.10437 7.5C0.945 7.5 0 8.67578 0 10.125C0 11.5742 0.940625 12.75 2.1 12.75C2.21375 12.75 2.3275 12.7281 2.43688 12.7063L5.6 23.25H22.4L25.5631 12.7063C25.6725 12.7281 25.7862 12.75 25.9 12.75C27.0594 12.75 28 11.5742 28 10.125C28 8.67578 27.0594 7.5 25.9 7.5Z" fill="#3B82F6"/>
</g>
<defs>
<clipPath id="clip0_4833_6784">
<rect width="28" height="28" fill="white" transform="translate(0 0.5)"/>
</clipPath>
</defs>
</svg>
