<svg width="16" height="16" viewBox="0 0 16 16" fill="none" xmlns="http://www.w3.org/2000/svg">
<path d="M12.3847 0.998047H8.25L10.8809 4.50617L12.3847 0.998047Z" fill="white"/>
<path d="M3.61719 0.998047L5.12094 4.50617L7.75187 0.998047H3.61719Z" fill="white"/>
<path d="M8 2.33105L6 4.99762H10L8 2.33105Z" fill="white"/>
<path d="M13.2169 1.59375L11.7578 4.99813H15.2497L13.2169 1.59375Z" fill="white"/>
<path d="M2.78281 1.59375L0.71875 4.99813H4.24187L2.78281 1.59375Z" fill="white"/>
<path d="M4.58375 5.99805H0.75L7.7125 14.998H7.72906L4.58375 5.99805Z" fill="white"/>
<path d="M11.4148 5.99805L8.26953 14.998H8.28609L15.2486 5.99805H11.4148Z" fill="white"/>
<path d="M10.2939 5.99805H5.70703L8.00047 12.498L10.2939 5.99805Z" fill="white"/>
</svg>
