<svg width="30" height="30" viewBox="0 0 30 30" fill="none" xmlns="http://www.w3.org/2000/svg">
<path d="M1.66602 6.99996C1.66602 2.58751 2.5869 1.66663 6.99935 1.66663H22.9993C27.4118 1.66663 28.3327 2.58752 28.3327 6.99996V23C28.3327 27.4124 27.4118 28.3333 22.9993 28.3333H6.99935C2.5869 28.3333 1.66602 27.4124 1.66602 23V6.99996Z" stroke="#3174CD" stroke-width="2" stroke-linecap="round" stroke-linejoin="round"/>
<path d="M1.66602 9.66663H28.3327" stroke="#3174CD" stroke-width="2"/>
<path d="M5.66602 5.66663H10.9993" stroke="#3174CD" stroke-width="2" stroke-linecap="round"/>
<path d="M24.334 5.67856V5.66663" stroke="#3174CD" stroke-width="2.66667" stroke-linecap="round" stroke-linejoin="round"/>
<circle cx="11" cy="19" r="4" stroke="#3174CD" stroke-width="2" stroke-linecap="round" stroke-linejoin="round"/>
<path d="M19 15L19.1834 14.017C18.8912 13.9624 18.5898 14.0408 18.361 14.2308C18.1323 14.4208 18 14.7027 18 15L19 15ZM18 23C18 23.5523 18.4477 24 19 24C19.5523 24 20 23.5523 20 23H18ZM21.7976 16.6982L20.8199 16.9082V16.9082L21.7976 16.6982ZM22.3161 19.1115L23.2938 18.9015L23.2938 18.9015L22.3161 19.1115ZM20.4422 19.8198L20.4402 18.8198H20.4402L20.4422 19.8198ZM18.7565 18.919C18.2209 19.0535 17.8956 19.5967 18.0301 20.1324C18.1646 20.668 18.7078 20.9933 19.2435 20.8588L18.7565 18.919ZM19 15L18 15L18 23H19H20L20 15L19 15ZM21.7976 16.6982L20.8199 16.9082L21.3384 19.3215L22.3161 19.1115L23.2938 18.9015L22.7753 16.4881L21.7976 16.6982ZM20.4422 19.8198L20.4402 18.8198C20.0555 18.8206 19.74 18.8211 19.4884 18.8307C19.2406 18.8401 18.9924 18.8598 18.7565 18.919L19 19.8889L19.2435 20.8588C19.2731 20.8514 19.3538 20.8373 19.5646 20.8292C19.7716 20.8214 20.0445 20.8206 20.4443 20.8198L20.4422 19.8198ZM21.7976 16.6982L22.7753 16.4881C22.6027 15.6843 22.0241 15.1336 21.407 14.7741C20.7857 14.4121 20.0092 14.1711 19.1834 14.017L19 15L18.8166 15.983C19.519 16.1141 20.0503 16.2983 20.4002 16.5022C20.7543 16.7085 20.8105 16.8643 20.8199 16.9082L21.7976 16.6982ZM22.3161 19.1115L21.3384 19.3215C21.3336 19.2991 21.3074 19.1026 21.4624 18.9034C21.5828 18.7487 21.7054 18.7384 21.6218 18.7602C21.5525 18.7783 21.4228 18.7972 21.2019 18.8079C20.9871 18.8183 20.7385 18.8192 20.4402 18.8198L20.4422 19.8198L20.4443 20.8198C20.9723 20.8187 21.6334 20.8244 22.1278 20.6952C22.3852 20.6279 22.766 20.4847 23.0407 20.1318C23.3499 19.7345 23.3739 19.2745 23.2938 18.9015L22.3161 19.1115Z" fill="#3174CD"/>
</svg>
