<svg width="32" height="32" viewBox="0 0 32 32" fill="none" xmlns="http://www.w3.org/2000/svg">
<path d="M5.33325 8C5.33325 6.8954 6.22869 6 7.33325 6H24.6666C25.7712 6 26.6666 6.8954 26.6666 8V15.3333H5.33325V8Z" stroke="#3174CD" stroke-width="2.66667" stroke-linecap="round" stroke-linejoin="round"/>
<path d="M4 23.3333V26" stroke="#3174CD" stroke-width="2.66667" stroke-linecap="round" stroke-linejoin="round"/>
<path d="M28 23.3333V26" stroke="#3174CD" stroke-width="2.66667" stroke-linecap="round" stroke-linejoin="round"/>
<path d="M13.3333 12H9.33325C8.22865 12 7.33325 12.8954 7.33325 14V15.3333H15.3333V14C15.3333 12.8954 14.4379 12 13.3333 12Z" stroke="#3174CD" stroke-width="2.66667" stroke-linecap="round" stroke-linejoin="round"/>
<path d="M22.6667 12H18.6667C17.5621 12 16.6667 12.8954 16.6667 14V15.3333H24.6667V14C24.6667 12.8954 23.7713 12 22.6667 12Z" stroke="#3174CD" stroke-width="2.66667" stroke-linecap="round" stroke-linejoin="round"/>
<path d="M2.66675 17.3333C2.66675 16.2287 3.56218 15.3333 4.66675 15.3333H27.3334C28.438 15.3333 29.3334 16.2287 29.3334 17.3333V23.3333H2.66675V17.3333Z" stroke="#3174CD" stroke-width="2.66667" stroke-linecap="round" stroke-linejoin="round"/>
</svg>
