<svg width="32" height="32" viewBox="0 0 32 32" fill="none" xmlns="http://www.w3.org/2000/svg">
<path d="M21.9993 27.3333C18.3462 29.335 15.3327 29.3333 11.3327 28C7.28175 26.6496 4.66602 22 4.66602 18.6666C4.66602 16.8374 7.40835 15.7521 8.35175 15.4329C8.53762 15.37 8.66602 15.1977 8.66602 15.0015V9.99996C8.66602 8.71129 9.71068 7.66663 10.9993 7.66663C12.288 7.66663 13.3327 8.71129 13.3327 9.99996V8.33329C13.3327 7.04463 14.3773 5.99996 15.666 5.99996C16.9547 5.99996 17.9993 7.04463 17.9993 8.33329V9.99996C17.9993 8.71129 19.044 7.66663 20.3327 7.66663C21.6213 7.66663 22.666 8.71129 22.666 9.99996V4.99995C22.666 3.71129 23.7107 2.66663 24.9993 2.66663C26.288 2.66663 27.3327 3.71129 27.3327 4.99995V18.8212C27.3327 20.4694 26.9378 22.1068 25.974 23.4438C24.994 24.8032 23.5709 26.4722 21.9993 27.3333Z" stroke="#3174CD" stroke-width="2" stroke-linecap="round" stroke-linejoin="round"/>
</svg>
