<svg width="28" height="29" viewBox="0 0 28 29" fill="none" xmlns="http://www.w3.org/2000/svg">
<path d="M0 9.68783V8.81283C0 8.08795 0.587617 7.50033 1.3125 7.50033H21V4.87533C21 3.70682 22.4164 3.12304 23.2406 3.94723L27.6156 8.32223C28.1281 8.83482 28.1281 9.66585 27.6156 10.1784L23.2406 14.5534C22.4195 15.3743 21 14.7987 21 13.6253V11.0003H1.3125C0.587617 11.0003 0 10.4127 0 9.68783ZM26.6875 18.0003H7V15.3753C7 14.2097 5.58567 13.621 4.7594 14.4472L0.384398 18.8222C-0.128133 19.3348 -0.128133 20.1658 0.384398 20.6784L4.7594 25.0534C5.58124 25.8752 7 25.2977 7 24.1253V21.5003H26.6875C27.4124 21.5003 28 20.9127 28 20.1878V19.3128C28 18.5879 27.4124 18.0003 26.6875 18.0003Z" fill="#14B8A6"/>
</svg>
