<svg width="32" height="32" viewBox="0 0 32 32" fill="none" xmlns="http://www.w3.org/2000/svg">
<path d="M5.33325 13.3334V17.3334C5.33325 22.3617 5.33325 24.8759 6.89535 26.438C8.45745 28.0001 10.9716 28.0001 15.9999 28.0001C21.0282 28.0001 23.5424 28.0001 25.1045 26.438C26.6666 24.8759 26.6666 22.3617 26.6666 17.3334V13.3334C26.6666 8.3051 26.6666 5.79094 25.1045 4.22885C23.5424 2.66675 21.0282 2.66675 15.9999 2.66675C10.9716 2.66675 8.45745 2.66675 6.89535 4.22885C6.02444 5.09975 5.63909 6.2666 5.46858 8.00008" stroke="#3174CD" stroke-width="2" stroke-linecap="round"/>
<path d="M22.6666 28V29.3333H21.3333V28M10.6666 28V29.3333H9.33325V28" stroke="#3174CD" stroke-width="2" stroke-linejoin="round"/>
<path d="M26.6666 15.3333H19.9999M5.33325 15.3333H14.6666" stroke="#3174CD" stroke-width="2" stroke-linecap="round"/>
<path d="M22.6667 9.33333L22.6667 12" stroke="#3174CD" stroke-width="2" stroke-linecap="round"/>
<path d="M22.6667 18.6666L22.6667 21.3333" stroke="#3174CD" stroke-width="2" stroke-linecap="round"/>
</svg>
