<svg width="32" height="32" viewBox="0 0 32 32" fill="none" xmlns="http://www.w3.org/2000/svg">
<circle cx="20.0007" cy="5.33329" r="2.66667" stroke="#3174CD" stroke-width="2"/>
<path d="M14.6667 21.3333V20.035C14.6667 19.8769 14.6667 19.7979 14.6638 19.7224C14.623 18.6414 14.146 17.6229 13.3416 16.8994C13.2854 16.8489 13.2247 16.7983 13.1033 16.6972C12.9255 16.549 12.8366 16.4749 12.7677 16.4086C11.7459 15.425 11.6728 13.8137 12.6014 12.7416C12.6639 12.6694 12.7458 12.5875 12.9095 12.4238L13.3485 11.9848C14.6185 10.7148 14.2042 8.56367 12.5534 7.85616C11.7891 7.52861 10.9129 7.59609 10.2077 8.03678L6 10.6666" stroke="#3174CD" stroke-width="2" stroke-linecap="round"/>
<path d="M4 20.6666H4.50491C6.31592 20.6666 8.05276 19.9472 9.33333 18.6666" stroke="#3174CD" stroke-width="2" stroke-linecap="round"/>
<path d="M16.666 13.3334C17.9642 13.7661 19.3678 13.7661 20.666 13.3334" stroke="#3174CD" stroke-width="2" stroke-linecap="round"/>
<path d="M25.9844 29.3333H4.11514C3.31481 29.3333 2.66602 28.6845 2.66602 27.8842C2.66602 27.1802 3.17192 26.5781 3.86534 26.4567L25.4073 22.6869C27.4561 22.3283 29.3327 23.905 29.3327 25.985C29.3327 27.8342 27.8336 29.3333 25.9844 29.3333Z" stroke="#3174CD" stroke-width="2" stroke-linejoin="round"/>
<path d="M25.4957 13.3618L24.5068 13.2134L25.4957 13.3618ZM29.5294 10.314C30.071 10.2056 30.4222 9.67882 30.3139 9.13726C30.2056 8.5957 29.6788 8.24448 29.1372 8.35279L29.5294 10.314ZM24 23.3334L24.9889 23.4817L26.4847 13.5101L25.4957 13.3618L24.5068 13.2134L23.0111 23.185L24 23.3334ZM25.4957 13.3618L26.4847 13.5101C26.7248 11.9096 27.9425 10.6314 29.5294 10.314L29.3333 9.33337L29.1372 8.35279C26.7238 8.83549 24.8719 10.7794 24.5068 13.2134L25.4957 13.3618Z" fill="#3174CD"/>
</svg>
