<svg width="28" height="28" viewBox="0 0 28 28" fill="none" xmlns="http://www.w3.org/2000/svg">
<g clip-path="url(#clip0_4556_5763)">
<path d="M0.0020562 12.1366C0.19515 11.5662 0.686787 11.6703 1.1661 11.6531V10.7582C1.1661 10.0981 1.35372 9.90982 2.00901 9.90913C2.46504 9.90913 2.92107 9.91735 3.37847 9.9016C3.4668 9.9016 3.60374 9.81601 3.63044 9.74001C4.18576 8.15143 6.22283 7.61734 7.46493 8.84369C7.49712 8.87519 7.53341 8.90121 7.58956 8.9464C8.06887 8.46161 8.64198 8.16581 9.32945 8.16581C10.0169 8.16581 10.6003 8.4397 11.0666 8.94024C12.5251 7.90082 13.2975 7.90014 14.593 8.94024C15.0661 8.46093 15.6399 8.16512 16.3267 8.16444C17.0135 8.16376 17.5983 8.43833 18.0659 8.9375C19.5477 7.89945 20.3091 7.89808 21.5327 8.89162C21.9169 8.68073 22.2661 8.42464 22.657 8.28495C24.0101 7.80153 25.5466 8.83274 25.648 10.2707C25.6726 10.6247 25.6623 10.9807 25.6671 11.3361C25.6671 11.434 25.6671 11.5319 25.6671 11.6436H26.8414V11.3101C26.8414 9.95204 26.8414 8.59422 26.8414 7.23663C26.8388 7.12729 26.844 7.0179 26.8572 6.90933C26.8762 6.78295 26.9374 6.66669 27.0306 6.57931C27.1239 6.49194 27.2439 6.43857 27.3713 6.4278C27.4986 6.41704 27.6259 6.44951 27.7325 6.51999C27.8391 6.59046 27.9189 6.69482 27.9589 6.81621C27.9901 6.93014 28.0046 7.048 28.0021 7.1661C28.0048 8.79713 28.0048 10.4282 28.0021 12.0592C28.0021 12.6207 27.7905 12.8309 27.2262 12.8336C26.7175 12.8336 26.2087 12.8336 25.6651 12.8336V13.2082C25.6651 17.2997 25.6651 21.3911 25.6651 25.4826C25.6651 26.3208 25.4049 27.0363 24.7064 27.5177C24.3874 27.7375 23.9861 27.8381 23.6225 27.997H22.9665C22.4503 27.832 21.9559 27.6272 21.6026 27.228C21.3574 27.4033 21.1568 27.5793 20.9281 27.7012C20.6994 27.8231 20.4289 27.9004 20.1749 27.997H19.4641C18.9472 27.832 18.4528 27.6272 18.0995 27.228C17.8544 27.4033 17.6544 27.5793 17.425 27.7012C17.1956 27.8231 16.9259 27.9004 16.6718 27.997H15.9707C15.4544 27.832 14.96 27.6265 14.5765 27.1945C14.1931 27.6532 13.6926 27.8347 13.1817 27.997H12.471C11.9547 27.832 11.4597 27.6272 11.0769 27.1945C10.6928 27.6532 10.1929 27.8347 9.68208 27.997H8.97065C8.45437 27.832 7.95999 27.6272 7.57722 27.1945C7.19309 27.6532 6.69324 27.8347 6.18175 27.997H5.58055C5.33063 27.9182 5.06496 27.871 4.8342 27.7553C3.92077 27.2985 3.50307 26.5303 3.50239 25.5237C3.50239 21.9923 3.50239 18.4612 3.50239 14.9303V14.5879C3.11826 14.5879 2.76494 14.5797 2.4123 14.5879C1.27565 14.6201 1.1257 14.505 1.16404 13.3554C1.16952 13.1876 1.16404 13.0199 1.16404 12.8562C0.21569 12.7877 0.21569 12.7877 0 12.3618L0.0020562 12.1366ZM7.00205 18.0828V10.7308C7.00205 10.6219 7.00205 10.5117 6.9952 10.4035C6.97327 10.152 6.87116 9.91416 6.70387 9.72506C6.53659 9.53595 6.313 9.40558 6.06603 9.35313C5.5429 9.25384 5.0047 9.50446 4.79997 9.9913C4.71095 10.2192 4.66699 10.4622 4.67054 10.7068C4.66324 15.6173 4.66187 20.5275 4.66643 25.4375C4.66512 25.583 4.67588 25.7285 4.69861 25.8723C4.74989 26.1622 4.91092 26.4213 5.14823 26.5956C5.38554 26.7699 5.68089 26.8461 5.9729 26.8083C6.6008 26.7254 7 26.2516 7 25.571C7.00319 23.0754 7.00388 20.5793 7.00205 18.0828ZM10.5024 18.0828C10.5024 15.6323 10.5024 13.1817 10.5024 10.7308C10.5064 10.6217 10.5039 10.5124 10.4949 10.4035C10.4401 9.92899 10.1977 9.58183 9.74918 9.41202C9.30069 9.2422 8.88575 9.33053 8.53243 9.65578C8.24416 9.92214 8.16541 10.272 8.16541 10.6493C8.16541 15.6054 8.16541 20.5613 8.16541 25.5169C8.16562 25.6444 8.17754 25.7716 8.20102 25.8969C8.25809 26.1761 8.4167 26.4242 8.64614 26.5932C8.87559 26.7622 9.15956 26.84 9.44311 26.8117C10.0874 26.7371 10.499 26.2639 10.4997 25.571C10.5033 23.0763 10.5042 20.5807 10.5024 18.0841V18.0828ZM14.0021 18.0711V10.7212C14.0021 10.6117 14.002 10.5021 13.9938 10.3932C13.9699 10.1421 13.8657 9.90526 13.6968 9.71783C13.5279 9.5304 13.3031 9.4023 13.0558 9.35245C12.5292 9.25932 11.9951 9.51404 11.7938 9.99952C11.709 10.2196 11.6669 10.4539 11.6699 10.6897C11.663 15.6198 11.6619 20.5482 11.6664 25.4751C11.6654 25.6207 11.6783 25.7661 11.7048 25.9092C11.7645 26.1878 11.9255 26.4344 12.1567 26.601C12.3878 26.7676 12.6726 26.8425 12.9558 26.811C13.5981 26.7323 14.0007 26.2564 14.0014 25.5614C14.0036 23.0649 14.0039 20.5695 14.0021 18.0752V18.0711ZM17.5017 18.0656V12.9569C17.5017 12.1455 17.5086 11.3347 17.5017 10.524C17.4942 9.84819 17.0046 9.34834 16.3623 9.33807C15.6351 9.32643 15.1682 9.85435 15.1682 10.6952C15.1682 15.6143 15.1682 20.5336 15.1682 25.4532C15.166 25.6079 15.1791 25.7625 15.2072 25.9147C15.2683 26.1931 15.4305 26.4389 15.6626 26.6044C15.8946 26.7699 16.1799 26.8433 16.463 26.8103C17.1032 26.7289 17.5017 26.253 17.5024 25.5552C17.5038 23.0596 17.5035 20.5635 17.5017 18.067V18.0656ZM21.0021 18.0656V12.7932C21.0021 12.04 21.0089 11.2813 21.0021 10.5254C20.9932 9.84888 20.5043 9.35108 19.8606 9.34081C19.1341 9.32985 18.6678 9.85778 18.6678 10.7C18.6678 15.6191 18.6678 20.5382 18.6678 25.4573C18.6664 25.603 18.6781 25.7485 18.7027 25.8921C18.7578 26.1765 18.9185 26.4295 19.1524 26.6002C19.3864 26.7709 19.6764 26.8467 19.964 26.8124C20.6049 26.7309 21.0021 26.255 21.0027 25.5566C21.0032 23.0582 21.0034 20.5613 21.0034 18.0656H21.0021ZM24.5017 18.0766V11.4902C24.5017 11.1437 24.5134 10.7972 24.4962 10.4521C24.4545 9.63045 23.6301 9.1032 22.8892 9.42503C22.3414 9.66194 22.1627 10.1207 22.1634 10.687C22.1661 15.617 22.1661 20.5455 22.1634 25.4724C22.1625 25.6179 22.1751 25.7633 22.201 25.9065C22.2467 26.1263 22.356 26.3278 22.5152 26.486C22.6744 26.6443 22.8766 26.7523 23.0966 26.7966C23.8622 26.9452 24.4969 26.3933 24.4983 25.5641C24.5029 23.0681 24.504 20.5718 24.5017 18.0752V18.0766ZM2.35341 13.3855H3.48596V11.1013H2.35341V13.3855Z" fill="#3174CD"/>
<path d="M15.6951 2.10543C15.6984 2.68978 15.5055 3.25832 15.1473 3.72003C14.5133 4.54171 14.4818 5.10387 15.0179 6.01525C15.2439 6.40006 15.1734 6.76023 14.8392 6.92799C14.7131 6.99681 14.5654 7.01443 14.4267 6.9772C14.288 6.93997 14.1689 6.85074 14.0942 6.72805C13.3663 5.65302 13.1582 4.27603 14.1004 3.16745C14.6482 2.52312 14.6139 1.84729 14.2428 1.14339C14.1921 1.04753 14.1271 0.957826 14.0785 0.860594C13.9333 0.570269 14.0155 0.259402 14.2757 0.0971204C14.3381 0.0545203 14.4086 0.025042 14.4828 0.0104717C14.557 -0.00409855 14.6334 -0.00345778 14.7073 0.0123545C14.7812 0.0281667 14.8512 0.058822 14.913 0.102464C14.9747 0.146105 15.027 0.201825 15.0665 0.266249C15.4518 0.804448 15.6704 1.44401 15.6951 2.10543Z" fill="#3174CD"/>
<path d="M20.1833 3.81207C20.1854 4.22845 20.037 4.63157 19.7656 4.94736C19.4137 5.36367 19.4075 5.51568 19.6718 5.99979C19.753 6.1295 19.8031 6.27618 19.8184 6.42843C19.8229 6.54355 19.7894 6.65697 19.7229 6.75107C19.6564 6.84516 19.5607 6.91468 19.4507 6.94882C19.1994 7.04469 18.9714 6.98991 18.8105 6.78449C18.2757 6.09976 18.0634 5.10758 18.7721 4.31055C19.0837 3.95997 19.0843 3.78468 18.8474 3.35193C18.7714 3.21499 18.6893 3.05408 18.6838 2.90207C18.6749 2.64461 18.8207 2.45014 19.0741 2.36866C19.3391 2.28307 19.5643 2.36866 19.7273 2.58709C20.0034 2.93786 20.1628 3.36617 20.1833 3.81207Z" fill="#3174CD"/>
<path d="M10.8409 3.89303C10.8477 4.271 10.6964 4.63254 10.43 4.95025C10.0938 5.34945 10.0877 5.53296 10.3342 6.00542C10.423 6.17758 10.4652 6.36996 10.4568 6.56348C10.4498 6.6708 10.4026 6.77153 10.3245 6.84545C10.2464 6.91937 10.1432 6.96101 10.0357 6.96199C9.85557 6.96199 9.6077 6.91748 9.50225 6.7956C8.95036 6.15675 8.72644 5.14198 9.40432 4.35112C9.75216 3.94439 9.76723 3.78005 9.47759 3.3069C9.34475 3.08847 9.28724 2.87278 9.4146 2.63929C9.62002 2.26132 10.0993 2.23804 10.3945 2.58725C10.6547 2.89949 10.8416 3.42673 10.8409 3.89303Z" fill="#3174CD"/>
</g>
<defs>
<clipPath id="clip0_4556_5763">
<rect width="28" height="27.9918" fill="white"/>
</clipPath>
</defs>
</svg>
