<svg width="20" height="20" viewBox="0 0 20 20" fill="none" xmlns="http://www.w3.org/2000/svg">
<path d="M1.66675 10.1701C1.66675 8.26311 1.66675 7.3096 2.09942 6.51915C2.53208 5.72871 3.32254 5.23813 4.90344 4.25698L6.57011 3.2226C8.24124 2.18545 9.0768 1.66687 10.0001 1.66687C10.9234 1.66687 11.7589 2.18544 13.4301 3.22259L15.0967 4.25697C16.6776 5.23813 17.4681 5.72871 17.9007 6.51915C18.3334 7.3096 18.3334 8.26311 18.3334 10.1701V11.4377C18.3334 14.6884 18.3334 16.3138 17.3571 17.3237C16.3808 18.3335 14.8094 18.3335 11.6667 18.3335H8.33341C5.19072 18.3335 3.61937 18.3335 2.64306 17.3237C1.66675 16.3138 1.66675 14.6884 1.66675 11.4377V10.1701Z" stroke="#3174CD"/>
<path d="M12.5 11.6666L10 11.6666M10 11.6666L7.5 11.6666M10 11.6666L10 9.16663M10 11.6666L10 14.1666" stroke="#3174CD" stroke-linecap="round"/>
</svg>
