<svg width="24" height="25" viewBox="0 0 24 25" fill="none" xmlns="http://www.w3.org/2000/svg">
<path d="M22 22.5L2 22.5" stroke="#3174CD" stroke-width="1.5" stroke-linecap="round"/>
<path d="M2 11.4999L10.1259 4.99919C11.2216 4.12267 12.7784 4.12267 13.8741 4.99919L22 11.4999" stroke="#3174CD" stroke-width="1.5" stroke-linecap="round"/>
<path d="M15.5 6V4C15.5 3.72386 15.7239 3.5 16 3.5H18.5C18.7761 3.5 19 3.72386 19 4V9" stroke="#3174CD" stroke-width="1.5" stroke-linecap="round"/>
<path d="M4 22.5V10" stroke="#3174CD" stroke-width="1.5" stroke-linecap="round"/>
<path d="M20 22.5V10" stroke="#3174CD" stroke-width="1.5" stroke-linecap="round"/>
<path d="M15 22.5V17.5C15 16.0858 15 15.3787 14.5607 14.9393C14.1213 14.5 13.4142 14.5 12 14.5C10.5858 14.5 9.87868 14.5 9.43934 14.9393C9 15.3787 9 16.0858 9 17.5V22.5" stroke="#3174CD" stroke-width="1.5"/>
<path d="M14 10C14 11.1046 13.1046 12 12 12C10.8954 12 10 11.1046 10 10C10 8.89543 10.8954 8 12 8C13.1046 8 14 8.89543 14 10Z" stroke="#3174CD" stroke-width="1.5"/>
</svg>
