<svg width="30" height="30" viewBox="0 0 30 30" fill="none" xmlns="http://www.w3.org/2000/svg">
<path d="M1.66602 28.2912C2.93236 28.2912 4.18412 28.407 5.23726 27.5862C6.2691 26.782 7.91007 26.8086 8.9014 27.6456C9.98242 28.5584 12.023 28.5326 13.1285 27.6709C14.201 26.835 15.8272 26.7386 16.9014 27.6456C18.0801 28.6409 20.0664 28.4988 21.2373 27.5862C22.2691 26.782 23.9101 26.8086 24.9014 27.6456C25.8563 28.4519 27.159 28.2912 28.3327 28.2912" stroke="#3174CD" stroke-width="2" stroke-linecap="round" stroke-linejoin="round"/>
<path d="M9.66602 24.3333C11.2629 21.1451 14.2476 19 17.666 19C21.0845 19 24.0691 21.1451 25.666 24.3333" stroke="#3174CD" stroke-width="2" stroke-linecap="round" stroke-linejoin="round"/>
<path d="M13.6673 19.1355C9.66732 18.3931 6.197 20.7822 4.33398 24.3333" stroke="#3174CD" stroke-width="2" stroke-linecap="round" stroke-linejoin="round"/>
<path d="M15 19C15 15 16.0667 8.54669 20.3333 5.66669" stroke="#3174CD" stroke-width="2" stroke-linecap="round" stroke-linejoin="round"/>
<path d="M19.6672 1.66669C20.834 1.66669 22.0699 3.12963 20.3333 5.66669M20.3333 5.66669C21.3815 5.97811 24.6107 7.42605 24.3104 11M20.3333 5.66669C19.553 4.72761 16.7502 3.53351 15 5.40016M20.3333 5.66669C21.1066 6.61231 21.6667 9.66669 20.3333 11" stroke="#3174CD" stroke-width="2" stroke-linecap="round" stroke-linejoin="round"/>
</svg>
