<svg width="32" height="32" viewBox="0 0 32 32" fill="none" xmlns="http://www.w3.org/2000/svg">
<path d="M16.1864 10.16H9.15969C6.67969 10.16 6.1197 11.4001 5.81303 12.9334L4.67969 18.3334H20.6797L19.5464 12.9334C19.213 11.4001 18.6664 10.16 16.1864 10.16Z" stroke="#3174CD" stroke-width="2" stroke-linecap="round" stroke-linejoin="round"/>
<path d="M22.6529 27.1466C22.7595 28.3199 21.8262 29.3333 20.6262 29.3333H18.7462C17.6662 29.3333 17.5195 28.8666 17.3195 28.3066L17.1195 27.7067C16.8395 26.8933 16.6528 26.3333 15.2128 26.3333H10.0929C8.65286 26.3333 8.43951 26.96 8.18618 27.7067L7.98619 28.3066C7.79952 28.8799 7.65284 29.3333 6.55951 29.3333H4.6795C3.4795 29.3333 2.53285 28.3199 2.65285 27.1466L3.21285 21.0533C3.35952 19.5466 3.63951 18.3199 6.26617 18.3199H19.0262C21.6528 18.3199 21.9328 19.5466 22.0795 21.0533L22.6529 27.1466Z" stroke="#3174CD" stroke-width="2" stroke-linecap="round" stroke-linejoin="round"/>
<path d="M4.66602 15.3334H3.66602" stroke="#3174CD" stroke-width="2" stroke-linecap="round" stroke-linejoin="round"/>
<path d="M21.666 15.3334H20.666" stroke="#3174CD" stroke-width="2" stroke-linecap="round" stroke-linejoin="round"/>
<path d="M6.66602 22.3334H9.66602" stroke="#3174CD" stroke-width="2" stroke-linecap="round" stroke-linejoin="round"/>
<path d="M15.666 22.3334H18.666" stroke="#3174CD" stroke-width="2" stroke-linecap="round" stroke-linejoin="round"/>
<path d="M24.9462 11.6532C25.3195 10.7865 25.1862 9.6132 24.4928 8.58653C23.8128 7.55986 22.7728 6.98653 21.8262 6.99986" stroke="#3174CD" stroke-width="2" stroke-linecap="round" stroke-linejoin="round"/>
<path d="M29.0942 12.9733C29.6542 10.9599 29.2542 8.49332 27.8275 6.35999C26.4008 4.22665 24.2675 2.91996 22.1875 2.66663" stroke="#3174CD" stroke-width="2" stroke-linecap="round" stroke-linejoin="round"/>
</svg>
