<svg width="40" height="40" viewBox="0 0 40 40" fill="none" xmlns="http://www.w3.org/2000/svg">
<rect width="40" height="40" rx="20" fill="#3174CD"/>
<path d="M23.2141 13.9824L24.6158 12.5806C25.39 11.8065 26.6452 11.8065 27.4194 12.5806C28.1935 13.3548 28.1935 14.61 27.4194 15.3842L26.0176 16.7859M23.2141 13.9824L14.9802 22.2163C13.9349 23.2616 13.4123 23.7842 13.0564 24.4211C12.7005 25.058 12.3424 26.5619 12 28C13.4381 27.6576 14.942 27.2995 15.5789 26.9436C16.2158 26.5877 16.7384 26.0651 17.7837 25.0198L26.0176 16.7859M23.2141 13.9824L26.0176 16.7859" stroke="white" stroke-width="1.5" stroke-linecap="round" stroke-linejoin="round"/>
<path d="M19 28H25" stroke="white" stroke-width="1.5" stroke-linecap="round"/>
</svg>
