<svg width="16" height="16" viewBox="0 0 16 16" fill="none" xmlns="http://www.w3.org/2000/svg">
<path d="M15.5586 4.43829L14.118 5.87891C13.9711 6.02579 13.7336 6.02579 13.5867 5.87891L10.118 2.41016C9.97112 2.26328 9.97112 2.02578 10.118 1.87891L11.5586 0.438282C12.143 -0.146094 13.093 -0.146094 13.6805 0.438282L15.5586 2.31641C16.1461 2.90078 16.1461 3.85079 15.5586 4.43829ZM8.8805 3.11641L0.674259 11.3227L0.0117595 15.1195C-0.0788654 15.632 0.368009 16.0758 0.880508 15.9883L4.67738 15.3227L12.8836 7.11642C13.0305 6.96954 13.0305 6.73204 12.8836 6.58516L9.41487 3.11641C9.26487 2.96953 9.02737 2.96953 8.8805 3.11641ZM3.87738 10.6195C3.7055 10.4477 3.7055 10.1727 3.87738 10.0008L8.68987 5.18829C8.86175 5.01641 9.13675 5.01641 9.30862 5.18829C9.4805 5.36016 9.4805 5.63516 9.30862 5.80704L4.49613 10.6195C4.32425 10.7914 4.04925 10.7914 3.87738 10.6195ZM2.74926 13.2477H4.24925V14.382L2.23363 14.7352L1.26176 13.7633L1.61488 11.7477H2.74926V13.2477Z" fill="white"/>
</svg>
