<svg width="32" height="32" viewBox="0 0 32 32" fill="none" xmlns="http://www.w3.org/2000/svg">
<path d="M29.3327 16C29.3327 19.6924 27.8317 23.0342 25.4068 25.4486C22.9955 27.8494 19.6707 29.3333 15.9993 29.3333C8.63555 29.3333 2.66602 23.3638 2.66602 16C2.66602 12.441 4.06041 9.20769 6.33268 6.81663C8.76195 4.26033 12.1945 2.66663 15.9993 2.66663C19.6707 2.66663 22.9955 4.15051 25.4068 6.55126C27.8317 8.96576 29.3327 12.3076 29.3327 16Z" stroke="#3174CD" stroke-width="2" stroke-linecap="round" stroke-linejoin="round"/>
<path d="M29.3342 16C27.3886 16 22.0217 15.2662 17.2185 17.3755C12.0009 19.6668 8.22245 23.221 6.57617 25.4315" stroke="#3174CD" stroke-width="2" stroke-linecap="round" stroke-linejoin="round"/>
<path d="M11 3.63586C13.0869 5.56179 17.6402 10.4657 19.3333 15.3334C21.0265 20.201 21.6539 26.1861 22.0404 27.8898" stroke="#3174CD" stroke-width="2" stroke-linecap="round" stroke-linejoin="round"/>
<path d="M2.77148 14.3333C5.29 14.4851 11.9572 14.6221 16.2239 12.7999C20.4906 10.9777 24.1621 7.6264 25.4214 6.56348" stroke="#3174CD" stroke-width="2" stroke-linecap="round" stroke-linejoin="round"/>
<path d="M3.66602 21.0756C4.84046 23.9264 6.97455 26.2807 9.66602 27.7362" stroke="#3174CD" stroke-width="2" stroke-linecap="round" stroke-linejoin="round"/>
<path d="M2.66602 16.0001C2.66602 12.4412 4.06041 9.20784 6.33268 6.81677" stroke="#3174CD" stroke-width="2" stroke-linecap="round" stroke-linejoin="round"/>
<path d="M16.0007 2.66663C12.1959 2.66663 8.76325 4.26033 6.33398 6.81663" stroke="#3174CD" stroke-width="2" stroke-linecap="round" stroke-linejoin="round"/>
<path d="M21.334 3.776C22.8629 4.444 24.2423 5.39043 25.4081 6.55119C27.8331 8.96568 29.334 12.3075 29.334 15.9999C29.334 17.6417 29.0373 19.2141 28.4945 20.6665" stroke="#3174CD" stroke-width="2" stroke-linecap="round" stroke-linejoin="round"/>
<path d="M16 29.3333C19.6714 29.3333 22.9962 27.8495 25.4075 25.4487" stroke="#3174CD" stroke-width="2" stroke-linecap="round" stroke-linejoin="round"/>
</svg>
