<svg width="28" height="29" viewBox="0 0 28 29" fill="none" xmlns="http://www.w3.org/2000/svg">
<path d="M10.6774 6.81043C12.1551 4.15947 12.894 2.83398 13.9987 2.83398C15.1034 2.83398 15.8423 4.15946 17.32 6.81042L17.7023 7.49625C18.1223 8.24957 18.3322 8.62624 18.6596 8.87476C18.987 9.12329 19.3946 9.21553 20.2101 9.40004L20.9526 9.56802C23.8221 10.2173 25.257 10.5419 25.5984 11.6397C25.9398 12.7374 24.9616 13.8813 23.0052 16.1689L22.4991 16.7607C21.9432 17.4108 21.6652 17.7358 21.5401 18.138C21.4152 18.5401 21.4572 18.9738 21.5412 19.8412L21.6177 20.6308C21.9135 23.683 22.0614 25.2091 21.1677 25.8876C20.274 26.566 18.9305 25.9474 16.2437 24.7104L15.5486 24.3903C14.7851 24.0387 14.4034 23.8629 13.9987 23.8629C13.594 23.8629 13.2122 24.0387 12.4488 24.3903L11.7537 24.7104C9.06683 25.9474 7.72341 26.566 6.82971 25.8876C5.93601 25.2091 6.08389 23.683 6.37967 20.6308L6.45618 19.8412C6.54023 18.9738 6.58226 18.5401 6.4572 18.138C6.33216 17.7358 6.0542 17.4108 5.49827 16.7607L4.99215 16.1689C3.03583 13.8813 2.05766 12.7374 2.39902 11.6397C2.74039 10.5419 4.1752 10.2173 7.04483 9.56802L7.78724 9.40004C8.60269 9.21553 9.01042 9.12329 9.3378 8.87476C9.66517 8.62624 9.87515 8.24958 10.2951 7.49625L10.6774 6.81043Z" fill="#E8BB20"/>
</svg>
