<svg width="30" height="24" viewBox="0 0 30 24" fill="none" xmlns="http://www.w3.org/2000/svg">
<path d="M7.00977 12L6.99779 12" stroke="#3174CD" stroke-width="2.66667" stroke-linecap="round" stroke-linejoin="round"/>
<path d="M13.666 17.389C14.284 17.5929 14.8762 17.8278 15.4126 18.2033M15.4126 18.2033C16.8002 19.1747 17.666 20.7686 17.666 22.5127C17.666 22.5979 17.5946 22.667 17.5085 22.6666C13.6191 22.6494 11.8773 21.991 11.1452 20.9043L9.66602 18.4758C6.34399 17.8049 3.29039 15.6833 1.66602 12.1111C5.66602 3.31449 18.3327 3.31449 22.3327 12.1111M15.4126 18.2033C18.3062 17.323 20.8861 15.2922 22.3327 12.1111M15.4126 6.01892C16.8002 5.0475 17.666 3.45364 17.666 1.70955C17.666 0.607442 11.9216 2.16539 11.1452 3.31792L9.66602 5.7464M22.3327 12.1111C22.7771 11.2314 25.1327 8.15261 28.3327 8.15261C27.2216 9.25218 25.3993 13.4305 26.9993 16.0695C25.3993 16.0695 22.9993 12.9907 22.3327 12.1111Z" stroke="#3174CD" stroke-width="2" stroke-linecap="round" stroke-linejoin="round"/>
</svg>
