<svg width="16" height="16" viewBox="0 0 16 16" fill="none" xmlns="http://www.w3.org/2000/svg">
<path d="M3.97126 7.74418L5.53476 5.34083C5.53476 5.34083 3.19928 4.41306 2.11135 5.24464C1.02346 6.07668 0 8.38045 0 8.38045L1.15968 9.05283C1.15968 9.05283 2.62749 6.20853 3.97126 7.74418Z" fill="white"/>
<path d="M8.25346 12.0283L10.6568 10.4648C10.6568 10.4648 11.5846 12.8003 10.753 13.8883C9.92096 14.9757 7.6172 15.9996 7.6172 15.9996L6.94531 14.84C6.94531 14.84 9.78961 13.3721 8.25346 12.0283Z" fill="white"/>
<path d="M6.46056 11.3403L6.04796 10.9282C5.29794 12.8774 3.53619 12.4653 3.53619 12.4653C3.53619 12.4653 3.12406 10.7036 5.07334 9.95355L4.66121 9.54142C3.57378 9.35391 2.18654 10.6659 1.96144 11.9404C1.73681 13.2148 1.69922 14.3018 1.69922 14.3018C1.69922 14.3018 2.78615 14.2647 4.06107 14.0396C5.336 13.8145 6.64806 12.4277 6.46056 11.3403Z" fill="white"/>
<path d="M15.7864 0.211652C14.0851 -0.585707 9.77697 0.905509 7.38093 4.08332C5.55521 6.50377 4.57812 8.13467 4.57812 8.13467L6.02834 9.58489L6.41313 9.96968L7.86287 11.4194C7.86287 11.4194 9.49475 10.4428 11.9152 8.61762C15.092 6.22104 16.5837 1.91287 15.7864 0.211652ZM8.58017 7.41785C8.17975 7.01743 8.17975 6.36802 8.58017 5.96763C8.98058 5.56725 9.6295 5.56722 10.0304 5.96813C10.4308 6.36855 10.4308 7.01747 10.0304 7.41788C9.6295 7.81826 8.98055 7.81826 8.58017 7.41785ZM10.984 5.01449C10.4664 4.49642 10.4664 3.65753 10.984 3.13996C11.5011 2.62235 12.3405 2.62235 12.8581 3.13996C13.3757 3.65756 13.3757 4.49642 12.8581 5.01449C12.3405 5.53159 11.5011 5.53159 10.984 5.01449Z" fill="white"/>
</svg>
