<svg width="20" height="21" viewBox="0 0 20 21" fill="none" xmlns="http://www.w3.org/2000/svg">
<path d="M12.9173 10.4987C12.9173 12.1095 11.6115 13.4154 10.0007 13.4154C8.38982 13.4154 7.08398 12.1095 7.08398 10.4987C7.08398 8.88787 8.38982 7.58203 10.0007 7.58203C11.6115 7.58203 12.9173 8.88787 12.9173 10.4987Z" stroke="#3174CD" stroke-width="1.5"/>
<path d="M17.3258 8.12667C17.9977 9.2848 18.3337 9.86386 18.3337 10.5C18.3337 11.1361 17.9977 11.7152 17.3258 12.8733L15.7227 15.6365C15.0535 16.79 14.7189 17.3668 14.1686 17.6834C13.6183 18 12.9505 18 11.6148 18L8.38588 18C7.05018 18 6.38232 18 5.83205 17.6834C5.28177 17.3668 4.94715 16.79 4.27791 15.6365L2.67484 12.8733C2.00294 11.7152 1.66699 11.1361 1.66699 10.5C1.66699 9.86386 2.00294 9.2848 2.67484 8.12667L4.27792 5.36351C4.94715 4.20997 5.28177 3.6332 5.83205 3.3166C6.38232 3 7.05018 3 8.38589 3L11.6148 3C12.9505 3 13.6183 3 14.1686 3.3166C14.7189 3.6332 15.0535 4.20997 15.7227 5.36351L17.3258 8.12667Z" stroke="#3174CD" stroke-width="1.5"/>
</svg>
