<svg width="28" height="29" viewBox="0 0 28 29" fill="none" xmlns="http://www.w3.org/2000/svg">
<path d="M2.33203 26.1668V23.8335C2.33203 23.8335 8.16537 21.5002 13.9987 21.5002C19.832 21.5002 25.6654 23.8335 25.6654 23.8335V26.1668H2.33203ZM13.182 11.1168C11.782 6.56683 4.66536 7.61683 4.66536 7.61683C4.66536 7.61683 4.8987 16.7168 11.5487 15.3168C11.082 11.9335 9.33203 11.0002 9.33203 11.0002C12.5987 11.0002 12.832 14.9668 12.832 14.9668V20.3335C13.182 20.3335 13.6487 20.3335 13.9987 20.3335C14.3487 20.3335 14.8154 20.3335 15.1654 20.3335V15.4335C15.1654 15.4335 15.1654 10.8835 18.6654 9.71683C18.6654 9.71683 16.332 13.2168 16.332 15.5502C24.4987 16.3668 24.4987 5.16683 24.4987 5.16683C24.4987 5.16683 14.1154 4.00016 13.182 11.1168Z" fill="#00AC1F"/>
</svg>
