<svg width="45" height="46" viewBox="0 0 45 46" fill="none" xmlns="http://www.w3.org/2000/svg">
<path d="M19.4765 2.73384C20.4566 0.0804253 24.2095 0.0804257 25.1895 2.73384C25.9176 4.70504 28.3762 5.36382 29.9923 4.02074C32.1677 2.21284 35.4179 4.08929 34.9399 6.87724C34.5848 8.94839 36.3846 10.7482 38.4558 10.3931C41.2437 9.91515 43.1202 13.1653 41.3123 15.3407C39.9692 16.9568 40.628 19.4154 42.5992 20.1435C45.2526 21.1235 45.2526 24.8765 42.5992 25.8565C40.628 26.5846 39.9692 29.0432 41.3123 30.6593C43.1202 32.8347 41.2437 36.0848 38.4558 35.6069C36.3846 35.2518 34.5848 37.0516 34.9399 39.1228C35.4179 41.9107 32.1677 43.7872 29.9923 41.9793C28.3762 40.6362 25.9176 41.295 25.1895 43.2662C24.2095 45.9196 20.4565 45.9196 19.4765 43.2662C18.7484 41.295 16.2899 40.6362 14.6737 41.9793C12.4983 43.7872 9.24816 41.9107 9.72613 39.1228C10.0812 37.0516 8.28139 35.2518 6.21025 35.6069C3.4223 36.0848 1.54585 32.8347 3.35375 30.6593C4.69683 29.0432 4.03805 26.5846 2.06685 25.8565C-0.586567 24.8765 -0.586566 21.1235 2.06685 20.1435C4.03805 19.4154 4.69683 16.9568 3.35375 15.3407C1.54585 13.1653 3.4223 9.91515 6.21025 10.3931C8.28139 10.7482 10.0812 8.94839 9.72613 6.87724C9.24816 4.08929 12.4983 2.21284 14.6737 4.02074C16.2899 5.36382 18.7484 4.70504 19.4765 2.73384Z" fill="#808080"/>
</svg>
