<svg width="30" height="30" viewBox="0 0 30 30" fill="none" xmlns="http://www.w3.org/2000/svg">
<path d="M13.7141 1.14099C14.2968 0.170744 15.7032 0.170744 16.2859 1.14099L17.4441 3.06929C17.846 3.73857 18.6942 3.9876 19.3942 3.6419L21.411 2.64585C22.4258 2.14468 23.6088 2.90499 23.5745 4.03626L23.5063 6.2846C23.4826 7.06496 24.0615 7.733 24.8373 7.82062L27.0724 8.07307C28.1971 8.20009 28.7813 9.47932 28.1408 10.4124L26.8678 12.267C26.426 12.9107 26.5518 13.7856 27.1571 14.2787L28.901 15.6995C29.7784 16.4144 29.5782 17.8064 28.5349 18.2451L26.4614 19.1171C25.7418 19.4197 25.3746 20.2238 25.6171 20.9659L26.316 23.1039C26.6677 24.1797 25.7467 25.2425 24.6319 25.0475L22.4161 24.66C21.6471 24.5256 20.9035 25.0034 20.7063 25.7589L20.1383 27.9353C19.8526 29.0305 18.5032 29.4267 17.6707 28.6599L16.0162 27.136C15.442 26.6071 14.558 26.6071 13.9838 27.136L12.3293 28.6599C11.4968 29.4267 10.1474 29.0305 9.86166 27.9353L9.29368 25.7589C9.09655 25.0034 8.35293 24.5256 7.58389 24.66L5.36814 25.0475C4.25327 25.2425 3.33232 24.1797 3.68397 23.1039L4.38286 20.9659C4.62543 20.2238 4.25822 19.4197 3.53855 19.1171L1.46505 18.2451C0.421755 17.8064 0.221614 16.4144 1.09905 15.6995L2.8429 14.2787C3.44816 13.7856 3.57396 12.9107 3.13215 12.267L1.85922 10.4124C1.21873 9.47932 1.80294 8.20009 2.92758 8.07307L5.16274 7.82062C5.93852 7.733 6.51738 7.06496 6.4937 6.2846L6.42549 4.03626C6.39116 2.90499 7.57423 2.14468 8.58901 2.64585L10.6058 3.6419C11.3058 3.9876 12.154 3.73857 12.5559 3.06929L13.7141 1.14099Z" fill="#EB2525"/>
</svg>
