<svg width="93" height="94" viewBox="0 0 93 94" fill="none" xmlns="http://www.w3.org/2000/svg">
<g filter="url(#filter0_d_4439_4911)">
<path d="M43.8095 26.7338C44.7896 24.0804 48.5425 24.0804 49.5225 26.7338C50.2506 28.705 52.7092 29.3638 54.3253 28.0207C56.5007 26.2128 59.7509 28.0893 59.2729 30.8772C58.9178 32.9484 60.7176 34.7482 62.7888 34.3931C65.5767 33.9152 67.4532 37.1653 65.6453 39.3407C64.3022 40.9568 64.961 43.4154 66.9322 44.1435C69.5856 45.1235 69.5856 48.8765 66.9322 49.8565C64.961 50.5846 64.3022 53.0432 65.6453 54.6593C67.4532 56.8347 65.5767 60.0848 62.7888 59.6069C60.7176 59.2518 58.9178 61.0516 59.2729 63.1228C59.7509 65.9107 56.5007 67.7872 54.3253 65.9793C52.7092 64.6362 50.2506 65.295 49.5225 67.2662C48.5425 69.9196 44.7896 69.9196 43.8095 67.2662C43.0815 65.295 40.6229 64.6362 39.0067 65.9793C36.8313 67.7872 33.5812 65.9107 34.0591 63.1228C34.4142 61.0516 32.6144 59.2518 30.5433 59.6069C27.7553 60.0848 25.8789 56.8347 27.6868 54.6593C29.0298 53.0432 28.3711 50.5846 26.3999 49.8565C23.7464 48.8765 23.7464 45.1235 26.3999 44.1435C28.3711 43.4154 29.0298 40.9568 27.6868 39.3407C25.8789 37.1653 27.7553 33.9152 30.5433 34.3931C32.6144 34.7482 34.4142 32.9484 34.0591 30.8772C33.5812 28.0893 36.8313 26.2128 39.0067 28.0207C40.6229 29.3638 43.0815 28.705 43.8095 26.7338Z" fill="#3174CD"/>
</g>
<defs>
<filter id="filter0_d_4439_4911" x="0.410156" y="0.743896" width="92.5117" height="92.5122" filterUnits="userSpaceOnUse" color-interpolation-filters="sRGB">
<feFlood flood-opacity="0" result="BackgroundImageFix"/>
<feColorMatrix in="SourceAlpha" type="matrix" values="0 0 0 0 0 0 0 0 0 0 0 0 0 0 0 0 0 0 127 0" result="hardAlpha"/>
<feOffset/>
<feGaussianBlur stdDeviation="12"/>
<feComposite in2="hardAlpha" operator="out"/>
<feColorMatrix type="matrix" values="0 0 0 0 0.192157 0 0 0 0 0.454902 0 0 0 0 0.803922 0 0 0 0.5 0"/>
<feBlend mode="normal" in2="BackgroundImageFix" result="effect1_dropShadow_4439_4911"/>
<feBlend mode="normal" in="SourceGraphic" in2="effect1_dropShadow_4439_4911" result="shape"/>
</filter>
</defs>
</svg>
