<svg width="94" height="94" viewBox="0 0 94 94" fill="none" xmlns="http://www.w3.org/2000/svg">
<g filter="url(#filter0_d_4439_4781)">
<path d="M44.1435 26.7338C45.1235 24.0804 48.8765 24.0804 49.8565 26.7338C50.5846 28.705 53.0432 29.3638 54.6593 28.0207C56.8347 26.2128 60.0848 28.0893 59.6069 30.8772C59.2518 32.9484 61.0516 34.7482 63.1228 34.3931C65.9107 33.9152 67.7872 37.1653 65.9793 39.3407C64.6362 40.9568 65.295 43.4154 67.2662 44.1435C69.9196 45.1235 69.9196 48.8765 67.2662 49.8565C65.295 50.5846 64.6362 53.0432 65.9793 54.6593C67.7872 56.8347 65.9107 60.0848 63.1228 59.6069C61.0516 59.2518 59.2518 61.0516 59.6069 63.1228C60.0848 65.9107 56.8347 67.7872 54.6593 65.9793C53.0432 64.6362 50.5846 65.295 49.8565 67.2662C48.8765 69.9196 45.1235 69.9196 44.1435 67.2662C43.4154 65.295 40.9568 64.6362 39.3407 65.9793C37.1653 67.7872 33.9152 65.9107 34.3931 63.1228C34.7482 61.0516 32.9484 59.2518 30.8772 59.6069C28.0893 60.0848 26.2128 56.8347 28.0207 54.6593C29.3638 53.0432 28.705 50.5846 26.7338 49.8565C24.0804 48.8765 24.0804 45.1235 26.7338 44.1435C28.705 43.4154 29.3638 40.9568 28.0207 39.3407C26.2128 37.1653 28.0893 33.9152 30.8772 34.3931C32.9484 34.7482 34.7482 32.9484 34.3931 30.8772C33.9152 28.0893 37.1653 26.2128 39.3407 28.0207C40.9568 29.3638 43.4154 28.705 44.1435 26.7338Z" fill="#3174CD"/>
</g>
<defs>
<filter id="filter0_d_4439_4781" x="0.744141" y="0.743896" width="92.5117" height="92.5122" filterUnits="userSpaceOnUse" color-interpolation-filters="sRGB">
<feFlood flood-opacity="0" result="BackgroundImageFix"/>
<feColorMatrix in="SourceAlpha" type="matrix" values="0 0 0 0 0 0 0 0 0 0 0 0 0 0 0 0 0 0 127 0" result="hardAlpha"/>
<feOffset/>
<feGaussianBlur stdDeviation="12"/>
<feComposite in2="hardAlpha" operator="out"/>
<feColorMatrix type="matrix" values="0 0 0 0 0.192157 0 0 0 0 0.454902 0 0 0 0 0.803922 0 0 0 0.5 0"/>
<feBlend mode="normal" in2="BackgroundImageFix" result="effect1_dropShadow_4439_4781"/>
<feBlend mode="normal" in="SourceGraphic" in2="effect1_dropShadow_4439_4781" result="shape"/>
</filter>
</defs>
</svg>
