<svg width="32" height="32" viewBox="0 0 32 32" fill="none" xmlns="http://www.w3.org/2000/svg">
<path d="M29.3327 21.0298C27.2158 20.531 26.1267 19.3056 25.2259 17.9426C24.6614 17.0886 23.42 17.1405 22.8067 17.9603C21.4048 19.8343 19.3119 21.3333 15.9993 21.3333C12.6573 21.3333 10.5568 19.4261 9.15469 17.6314C8.56896 16.8816 7.44758 16.8916 6.93492 17.6931C6.00039 19.1541 4.91138 20.5008 2.66602 21.0298" stroke="#3174CD" stroke-width="2" stroke-linecap="round" stroke-linejoin="round"/>
<path d="M29.3327 27.6966C27.2158 27.1978 26.1267 25.9723 25.2259 24.6094C24.6614 23.7553 23.42 23.8072 22.8067 24.627C21.4048 26.5011 19.3119 28.0001 15.9993 28.0001C12.6573 28.0001 10.5568 26.0928 9.15469 24.2981C8.56896 23.5483 7.44758 23.5584 6.93492 24.3599C6.00039 25.8209 4.91138 27.1675 2.66602 27.6966" stroke="#3174CD" stroke-width="2" stroke-linecap="round" stroke-linejoin="round"/>
<path d="M5.33398 15.3333L9.96989 12.5518C11.0318 11.9146 11.2653 10.4754 10.4594 9.53519L9.14246 7.99875C8.49816 7.24707 8.54122 6.12607 9.24126 5.42603C10.014 4.65325 11.2786 4.69273 12.0016 5.5122L20.6673 15.3333" stroke="#3174CD" stroke-width="2" stroke-linecap="round" stroke-linejoin="round"/>
<path d="M22.6673 10.6667C24.5083 10.6667 26.0007 9.17428 26.0007 7.33333C26.0007 5.49238 24.5083 4 22.6673 4C20.8264 4 19.334 5.49238 19.334 7.33333C19.334 9.17428 20.8264 10.6667 22.6673 10.6667Z" stroke="#3174CD" stroke-width="2" stroke-linecap="round" stroke-linejoin="round"/>
</svg>
