<svg width="26" height="30" viewBox="0 0 26 30" fill="none" xmlns="http://www.w3.org/2000/svg">
<path d="M1 17.6666L2.33333 24.3333M2.33333 24.3333L1 28.3333M2.33333 24.3333H5.8705C6.80978 24.3333 7.03127 24.5209 7.18569 25.4474L7.66667 28.3333" stroke="#3174CD" stroke-width="2" stroke-linecap="round" stroke-linejoin="round"/>
<path d="M25 17.6666L23.6667 24.3333M23.6667 24.3333L25 28.3333M23.6667 24.3333H20.1295C19.1902 24.3333 18.9687 24.5209 18.8143 25.4474L18.3333 28.3333" stroke="#3174CD" stroke-width="2" stroke-linecap="round" stroke-linejoin="round"/>
<path d="M13 12.3334V28.3334" stroke="#3174CD" stroke-width="2" stroke-linecap="round" stroke-linejoin="round"/>
<path d="M3.13394 8.87632C5.89348 7.5842 8.67017 5.53131 10.7184 3.48534C11.9322 2.27286 12.5391 1.66663 13 1.66663C13.4609 1.66663 14.0678 2.27286 15.2816 3.48534C17.3298 5.53131 20.1065 7.5842 22.8661 8.87632C23.8045 9.31572 24.3771 9.85776 24.8307 10.913C25.1777 11.7203 25.022 12.3333 24.0761 12.3333H1.92393C0.977978 12.3333 0.822296 11.7203 1.16929 10.913C1.62291 9.85776 2.19551 9.31573 3.13394 8.87632Z" stroke="#3174CD" stroke-width="2" stroke-linecap="round" stroke-linejoin="round"/>
<path d="M11.666 28.3334H14.3327" stroke="#3174CD" stroke-width="2" stroke-linecap="round" stroke-linejoin="round"/>
<path d="M9 19H17" stroke="#3174CD" stroke-width="2" stroke-linecap="round" stroke-linejoin="round"/>
</svg>
