<svg width="32" height="32" viewBox="0 0 32 32" fill="none" xmlns="http://www.w3.org/2000/svg">
<path d="M12.2275 5.33341C12.7767 3.77982 14.2583 2.66675 15.9999 2.66675C17.7416 2.66675 19.2232 3.77982 19.7723 5.33341" stroke="#3174CD" stroke-width="2" stroke-linecap="round"/>
<path d="M27.3335 8H4.66675" stroke="#3174CD" stroke-width="2" stroke-linecap="round"/>
<path d="M24.4979 20.5321C24.2619 24.0719 24.1439 25.8419 22.9906 26.9209C21.8372 27.9999 20.0633 27.9999 16.5156 27.9999H15.4845C11.9367 27.9999 10.1628 27.9999 9.0095 26.9209C7.85616 25.8419 7.73816 24.0719 7.50217 20.5321L6.88892 11.3333M25.1111 11.3333L24.8445 15.3333" stroke="#3174CD" stroke-width="2" stroke-linecap="round"/>
<path d="M12.6667 14.6667L13.3334 21.3334" stroke="#3174CD" stroke-width="2" stroke-linecap="round"/>
<path d="M19.3334 14.6667L18.6667 21.3334" stroke="#3174CD" stroke-width="2" stroke-linecap="round"/>
</svg>
