<svg width="32" height="32" viewBox="0 0 32 32" fill="none" xmlns="http://www.w3.org/2000/svg">
<path d="M14.6665 22.6667H10.6665C6.89527 22.6667 5.00965 22.6667 3.83808 21.4952C2.6665 20.3236 2.6665 18.438 2.6665 14.6667V13.3334C2.6665 8.3051 2.6665 5.79094 4.2286 4.22885C4.85474 3.60271 5.63384 3.22755 6.6665 3.00276M29.3332 11.3334C29.3332 8.22057 29.3332 6.66415 28.7034 5.48597C28.2062 4.55569 27.4442 3.79375 26.514 3.2965C25.3358 2.66675 23.7793 2.66675 20.6665 2.66675H13.3332C12.8676 2.66675 12.4236 2.66675 11.9998 2.66799" stroke="#3174CD" stroke-width="2" stroke-linecap="round"/>
<path d="M18.6665 20.0001C18.6665 17.4859 18.6665 16.2288 19.4476 15.4478C20.2286 14.6667 21.4857 14.6667 23.9998 14.6667C26.514 14.6667 27.7711 14.6667 28.5521 15.4478C29.3332 16.2288 29.3332 17.4859 29.3332 20.0001V24.0001C29.3332 26.5142 29.3332 27.7713 28.5521 28.5524C27.7711 29.3334 26.514 29.3334 23.9998 29.3334C21.4857 29.3334 20.2286 29.3334 19.4476 28.5524C18.6665 27.7713 18.6665 26.5142 18.6665 24.0001V20.0001Z" stroke="#3174CD" stroke-width="2"/>
<path d="M25.3332 26.6667H22.6665" stroke="#3174CD" stroke-width="2" stroke-linecap="round"/>
<path d="M14.6665 29.3334V30.3334C15.2188 30.3334 15.6665 29.8857 15.6665 29.3334H14.6665ZM10.6665 28.3334C10.1142 28.3334 9.6665 28.7811 9.6665 29.3334C9.6665 29.8857 10.1142 30.3334 10.6665 30.3334V28.3334ZM15.6665 22.6667C15.6665 22.1145 15.2188 21.6667 14.6665 21.6667C14.1142 21.6667 13.6665 22.1145 13.6665 22.6667H15.6665ZM14.6665 29.3334V28.3334H10.6665V29.3334V30.3334H14.6665V29.3334ZM14.6665 29.3334H15.6665V22.6667H14.6665H13.6665V29.3334H14.6665Z" fill="#3174CD"/>
<path d="M14.6665 17.3333H2.6665" stroke="#3174CD" stroke-width="2" stroke-linecap="round"/>
</svg>
