<svg width="28" height="29" viewBox="0 0 28 29" fill="none" xmlns="http://www.w3.org/2000/svg">
<path d="M4.2 12.75C5.74437 12.75 7 11.1805 7 9.25C7 7.31953 5.74437 5.75 4.2 5.75C2.65563 5.75 1.4 7.31953 1.4 9.25C1.4 11.1805 2.65563 12.75 4.2 12.75ZM23.8 12.75C25.3444 12.75 26.6 11.1805 26.6 9.25C26.6 7.31953 25.3444 5.75 23.8 5.75C22.2556 5.75 21 7.31953 21 9.25C21 11.1805 22.2556 12.75 23.8 12.75ZM25.2 14.5H22.4C21.63 14.5 20.9344 14.8883 20.4269 15.5172C22.19 16.7258 23.4412 18.9078 23.7125 21.5H26.6C27.3744 21.5 28 20.718 28 19.75V18C28 16.0695 26.7444 14.5 25.2 14.5ZM14 14.5C16.7081 14.5 18.9 11.7602 18.9 8.375C18.9 4.98984 16.7081 2.25 14 2.25C11.2919 2.25 9.1 4.98984 9.1 8.375C9.1 11.7602 11.2919 14.5 14 14.5ZM17.36 16.25H16.9969C16.0869 16.7969 15.0763 17.125 14 17.125C12.9237 17.125 11.9175 16.7969 11.0031 16.25H10.64C7.8575 16.25 5.6 19.0719 5.6 22.55V24.125C5.6 25.5742 6.54063 26.75 7.7 26.75H20.3C21.4594 26.75 22.4 25.5742 22.4 24.125V22.55C22.4 19.0719 20.1425 16.25 17.36 16.25ZM7.57313 15.5172C7.06563 14.8883 6.37 14.5 5.6 14.5H2.8C1.25563 14.5 0 16.0695 0 18V19.75C0 20.718 0.625625 21.5 1.4 21.5H4.28312C4.55875 18.9078 5.81 16.7258 7.57313 15.5172Z" fill="#33BDFF"/>
</svg>
