<svg width="16" height="14" viewBox="0 0 16 14" fill="none" xmlns="http://www.w3.org/2000/svg">
<path d="M4.8 7C6.3475 7 7.6 5.43437 7.6 3.5C7.6 1.56562 6.3475 0 4.8 0C3.2525 0 2 1.56562 2 3.5C2 5.43437 3.2525 7 4.8 7ZM6.72 8H6.5125C5.9925 8.3125 5.415 8.5 4.8 8.5C4.185 8.5 3.61 8.3125 3.0875 8H2.88C1.29 8 0 9.6125 0 11.6V12.5C0 13.3281 0.5375 14 1.2 14H8.4C9.0625 14 9.6 13.3281 9.6 12.5V11.6C9.6 9.6125 8.31 8 6.72 8ZM12 7C13.325 7 14.4 5.65625 14.4 4C14.4 2.34375 13.325 1 12 1C10.675 1 9.6 2.34375 9.6 4C9.6 5.65625 10.675 7 12 7ZM13.2 8H13.105C12.7575 8.15 12.39 8.25 12 8.25C11.61 8.25 11.2425 8.15 10.895 8H10.8C10.29 8 9.82 8.18437 9.4075 8.48125C10.0175 9.30312 10.4 10.3938 10.4 11.6V12.8C10.4 12.8687 10.3875 12.9344 10.385 13H14.8C15.4625 13 16 12.3281 16 11.5C16 9.56562 14.7475 8 13.2 8Z" fill="white"/>
</svg>
