<svg width="20" height="21" viewBox="0 0 20 21" fill="none" xmlns="http://www.w3.org/2000/svg">
<path d="M5.48131 13.4026C4.30234 14.1046 1.21114 15.5381 3.09388 17.3318C4.01359 18.208 5.03791 18.8346 6.32572 18.8346H13.6743C14.9621 18.8346 15.9864 18.208 16.9061 17.3318C18.7889 15.5381 15.6977 14.1046 14.5187 13.4026C11.754 11.7564 8.24599 11.7564 5.48131 13.4026Z" stroke="#3174CD" stroke-width="1.5" stroke-linecap="round" stroke-linejoin="round"/>
<path d="M13.75 5.91797C13.75 7.98904 12.0711 9.66797 10 9.66797C7.92893 9.66797 6.25 7.98904 6.25 5.91797C6.25 3.8469 7.92893 2.16797 10 2.16797C12.0711 2.16797 13.75 3.8469 13.75 5.91797Z" stroke="#3174CD" stroke-width="1.5"/>
</svg>
