<svg width="16" height="16" viewBox="0 0 16 16" fill="none" xmlns="http://www.w3.org/2000/svg">
<path d="M2.4 7C3.2825 7 4 6.10313 4 5C4 3.89687 3.2825 3 2.4 3C1.5175 3 0.8 3.89687 0.8 5C0.8 6.10313 1.5175 7 2.4 7ZM13.6 7C14.4825 7 15.2 6.10313 15.2 5C15.2 3.89687 14.4825 3 13.6 3C12.7175 3 12 3.89687 12 5C12 6.10313 12.7175 7 13.6 7ZM14.4 8H12.8C12.36 8 11.9625 8.22188 11.6725 8.58125C12.68 9.27188 13.395 10.5188 13.55 12H15.2C15.6425 12 16 11.5531 16 11V10C16 8.89687 15.2825 8 14.4 8ZM8 8C9.5475 8 10.8 6.43437 10.8 4.5C10.8 2.56562 9.5475 1 8 1C6.4525 1 5.2 2.56562 5.2 4.5C5.2 6.43437 6.4525 8 8 8ZM9.92 9H9.7125C9.1925 9.3125 8.615 9.5 8 9.5C7.385 9.5 6.81 9.3125 6.2875 9H6.08C4.49 9 3.2 10.6125 3.2 12.6V13.5C3.2 14.3281 3.7375 15 4.4 15H11.6C12.2625 15 12.8 14.3281 12.8 13.5V12.6C12.8 10.6125 11.51 9 9.92 9ZM4.3275 8.58125C4.0375 8.22188 3.64 8 3.2 8H1.6C0.7175 8 0 8.89687 0 10V11C0 11.5531 0.3575 12 0.8 12H2.4475C2.605 10.5188 3.32 9.27188 4.3275 8.58125Z" fill="white"/>
</svg>
