<svg width="153" height="24" viewBox="0 0 153 24" fill="none" xmlns="http://www.w3.org/2000/svg">
<path d="M20.4679 11.9374C20.8904 11.9374 21.1967 12.0313 21.389 12.2146C21.5857 12.3934 21.684 12.6326 21.684 12.9299C21.684 13.4083 21.541 13.8308 21.2548 14.1997C20.9687 14.5708 20.5216 14.763 19.9135 14.7809C18.4404 14.8167 17.1326 14.7071 15.9881 14.4501C14.6826 17.193 13.1021 19.4709 11.2489 21.2817C9.40014 23.0946 7.54694 24 5.68703 24C3.77347 24 2.34501 22.889 1.40387 20.6647C0.467213 18.4359 0 15.4247 0 11.6334C0 8.39195 0.228018 5.47913 0.688524 2.89717C0.853949 1.94486 1.09091 1.29657 1.39493 0.95678C1.69896 0.616989 2.21758 0.447094 2.95082 0.447094C4.16691 0.447094 4.77496 0.972429 4.77496 2.02086C4.77496 2.12817 4.75708 2.33159 4.72131 2.62891C4.16691 5.94411 3.88971 8.94634 3.88971 11.6334C3.88971 14.4478 4.12444 16.5872 4.59612 18.0536C5.06557 19.5156 5.77198 20.2444 6.71535 20.2444C7.66765 20.2444 8.70491 19.5827 9.82712 18.2593C10.9538 16.9359 11.9866 15.2705 12.9299 13.2608C11.8033 12.5589 10.9538 11.6513 10.3815 10.5425C9.8137 9.4292 9.53203 8.14381 9.53203 6.68852C9.53203 5.23547 9.75558 4.00596 10.2027 3.00447C10.6542 1.99851 11.2712 1.24739 12.0536 0.751117C12.8405 0.250372 13.7101 0 14.6647 0C15.845 0 16.7794 0.424739 17.4724 1.26975C18.1632 2.11699 18.5097 3.2772 18.5097 4.74813C18.5097 6.87183 18.0469 9.1833 17.1237 11.687C18.1006 11.8547 19.2161 11.9374 20.4679 11.9374ZM12.3219 6.4918C12.3219 8.29806 12.8986 9.63487 14.0566 10.4978C14.7764 8.43666 15.1386 6.73099 15.1386 5.38301C15.1386 4.61401 15.0358 4.05067 14.8346 3.69299C14.6311 3.33085 14.3539 3.14754 14.003 3.14754C13.5067 3.14754 13.1021 3.44039 12.7869 4.02384C12.4761 4.60283 12.3219 5.42548 12.3219 6.4918Z" fill="#004AAD"/>
<path d="M25.968 24.0002C24.6983 24.0002 23.5492 23.6872 22.5254 23.0613C21.506 22.4353 20.7012 21.53 20.1111 20.3429C19.5209 19.1581 19.2258 17.7543 19.2258 16.1313C19.2258 13.337 19.8249 10.7461 21.0231 8.36082C22.2214 5.97111 23.9874 4.05531 26.3257 2.6112C28.6617 1.16932 31.4695 0.447266 34.7489 0.447266C35.5939 0.447266 36.5015 0.514329 37.4672 0.643987C38.433 0.769173 39.3115 0.961423 40.1051 1.21627C40.6237 1.36604 40.883 1.73489 40.883 2.32506C40.883 2.80345 40.6997 3.25278 40.3376 3.67528C39.9799 4.10002 39.5619 4.31015 39.0857 4.31015C38.9359 4.31015 38.8264 4.30121 38.7549 4.28333C37.7936 4.06425 36.9754 3.9033 36.2959 3.80047C35.6163 3.69987 34.8965 3.64846 34.1409 3.64846C31.8026 3.64846 29.8152 4.21626 28.1766 5.34741C26.5358 6.48079 25.3108 7.97632 24.5015 9.83623C23.6901 11.6961 23.2854 13.7036 23.2854 15.8541C23.2854 17.4234 23.5917 18.635 24.2065 19.4934C24.8257 20.3474 25.6327 20.7721 26.6297 20.7721C27.7497 20.7721 28.7333 20.3139 29.5805 19.3951C30.4255 18.4718 31.199 16.9785 31.8965 14.9152C32.5984 12.8541 33.2936 10.0553 33.9799 6.5188C34.0872 6.00687 34.3041 5.65814 34.6327 5.4726C34.9658 5.28929 35.4106 5.1954 35.965 5.1954C37.2705 5.1954 37.9233 5.62014 37.9233 6.46514C37.9233 6.61492 37.8965 6.80046 37.8428 7.01954C37.3644 8.80344 36.9263 10.7751 36.5284 12.9391C36.1349 15.103 35.9382 16.7483 35.9382 17.875C35.9382 18.8653 36.0835 19.5873 36.3763 20.0389C36.6737 20.4927 37.1275 20.7185 37.7355 20.7185C38.319 20.7185 38.8801 20.5218 39.4166 20.1283C39.9531 19.7304 40.626 19.0508 41.4374 18.0896C41.6565 17.8347 41.9046 17.7051 42.1796 17.7051C42.4166 17.7051 42.6044 17.8168 42.743 18.0359C42.8793 18.2572 42.9486 18.5613 42.9486 18.948C42.9486 19.6701 42.7742 20.2423 42.43 20.6648C41.5224 21.7513 40.6371 22.5784 39.7743 23.1507C38.9091 23.7185 37.8517 24.0002 36.5999 24.0002C35.3123 24.0002 34.2705 23.6291 33.4792 22.8824C32.6856 22.138 32.1871 21.0851 31.9859 19.7259C30.6267 22.5762 28.6193 24.0002 25.968 24.0002Z" fill="#004AAD"/>
<path d="M51.9008 24.0002C49.7123 24.0002 47.8077 23.6022 46.187 22.8019C44.564 22.0039 43.3211 20.8683 42.4582 19.3951C41.5931 17.9174 41.1616 16.2028 41.1616 14.2535C41.1616 11.5486 41.6713 9.14547 42.6907 7.04637C43.7145 4.9495 45.1005 3.32431 46.8487 2.17305C48.5946 1.02402 50.5372 0.447266 52.6788 0.447266C54.6638 0.447266 56.1706 0.956952 57.2033 1.97633C58.2339 2.9957 58.7503 4.34592 58.7503 6.02699C58.7503 7.1492 58.5536 8.05233 58.1601 8.73638C57.7667 9.41596 57.1989 9.75575 56.4612 9.75575C55.947 9.75575 55.5424 9.63727 55.2451 9.39808C54.9522 9.15441 54.8069 8.80344 54.8069 8.34294C54.8069 8.17751 54.8427 7.87349 54.9142 7.43087C55.026 6.87647 55.0841 6.43608 55.0841 6.10747C55.0841 4.4331 54.1899 3.5948 52.4016 3.5948C51.1855 3.5948 50.023 3.99272 48.9142 4.78407C47.8099 5.57096 46.9202 6.7334 46.2406 8.2714C45.561 9.8094 45.2212 11.638 45.2212 13.7528C45.2212 15.9659 45.8382 17.676 47.0722 18.8854C48.3062 20.0903 50.1258 20.6917 52.5357 20.6917C53.7339 20.6917 54.9433 20.5396 56.1661 20.2356C57.3934 19.9316 58.7525 19.4666 60.2436 18.8407C60.523 18.7289 60.7533 18.6708 60.9321 18.6708C61.2294 18.6708 61.4507 18.7826 61.5938 19.0016C61.7413 19.223 61.8173 19.5091 61.8173 19.8601C61.8173 20.9867 61.2093 21.8161 59.9932 22.3459C58.6877 22.9182 57.3285 23.3385 55.9157 23.6067C54.5074 23.8683 53.1706 24.0002 51.9008 24.0002Z" fill="#004AAD"/>
<path d="M66.6301 24.0002C65.3604 24.0002 64.2113 23.6872 63.1875 23.0613C62.1681 22.4353 61.3633 21.53 60.7732 20.3429C60.183 19.1581 59.8879 17.7543 59.8879 16.1313C59.8879 13.337 60.487 10.7461 61.6853 8.36082C62.8835 5.97111 64.6495 4.05531 66.9878 2.6112C69.3238 1.16932 72.1316 0.447266 75.411 0.447266C76.256 0.447266 77.1636 0.514329 78.1294 0.643987C79.0951 0.769173 79.9736 0.961423 80.7672 1.21627C81.2858 1.36604 81.5452 1.73489 81.5452 2.32506C81.5452 2.80345 81.3618 3.25278 80.9997 3.67528C80.642 4.10002 80.224 4.31015 79.7478 4.31015C79.5981 4.31015 79.4885 4.30121 79.417 4.28333C78.4557 4.06425 77.6376 3.9033 76.958 3.80047C76.2784 3.69987 75.5586 3.64846 74.803 3.64846C72.4647 3.64846 70.4774 4.21626 68.8388 5.34741C67.1979 6.48079 65.9729 7.97632 65.1636 9.83623C64.3522 11.6961 63.9475 13.7036 63.9475 15.8541C63.9475 17.4234 64.2538 18.635 64.8686 19.4934C65.4878 20.3474 66.2948 20.7721 67.2918 20.7721C68.4118 20.7721 69.3954 20.3139 70.2426 19.3951C71.0876 18.4718 71.8611 16.9785 72.5586 14.9152C73.2605 12.8541 73.9557 10.0553 74.642 6.5188C74.7493 6.00687 74.9662 5.65814 75.2948 5.4726C75.6279 5.28929 76.0727 5.1954 76.6271 5.1954C77.9326 5.1954 78.5854 5.62014 78.5854 6.46514C78.5854 6.61492 78.5586 6.80046 78.5049 7.01954C78.0265 8.80344 77.5884 10.7751 77.1905 12.9391C76.797 15.103 76.6003 16.7483 76.6003 17.875C76.6003 18.8653 76.7456 19.5873 77.0384 20.0389C77.3358 20.4927 77.7896 20.7185 78.3976 20.7185C78.9811 20.7185 79.5422 20.5218 80.0787 20.1283C80.6152 19.7304 81.2881 19.0508 82.0995 18.0896C82.3186 17.8347 82.5668 17.7051 82.8417 17.7051C83.0787 17.7051 83.2665 17.8168 83.4051 18.0359C83.5414 18.2572 83.6107 18.5613 83.6107 18.948C83.6107 19.6701 83.4364 20.2423 83.0921 20.6648C82.1845 21.7513 81.2992 22.5784 80.4364 23.1507C79.5712 23.7185 78.5139 24.0002 77.262 24.0002C75.9744 24.0002 74.9326 23.6291 74.1413 22.8824C73.3477 22.138 72.8492 21.0851 72.648 19.7259C71.2888 22.5762 69.2814 24.0002 66.6301 24.0002Z" fill="#004AAD"/>
<path d="M86.4645 24.0002C85.7782 24.0002 85.2887 23.8526 84.998 23.5531C84.7052 23.249 84.5599 22.6723 84.5599 21.8183C84.5599 21.2528 84.6135 20.5642 84.7208 19.7528C84.8326 18.9435 85.0271 17.7185 85.3021 16.0777C85.3378 15.8586 85.4831 14.9599 85.7402 13.3862C86.0018 11.8124 86.2343 10.1581 86.4377 8.42341C86.6165 6.95248 86.7059 5.84816 86.7059 5.11492C86.7059 4.2878 86.4042 3.872 85.8028 3.872C85.3378 3.872 84.7589 4.1179 84.0681 4.60524C83.3818 5.0881 82.6419 5.8638 81.8505 6.93012C81.5934 7.28333 81.3073 7.45769 80.9921 7.45769C80.735 7.45769 80.5092 7.33698 80.3125 7.09107C80.1203 6.8407 80.0264 6.55903 80.0264 6.2416C80.0264 5.9331 80.08 5.63355 80.1873 5.34741C80.2991 5.06127 80.5025 4.71701 80.7954 4.31015C81.7007 3.07618 82.7045 2.1261 83.8088 1.4577C84.9109 0.784821 86.0711 0.447266 87.2872 0.447266C88.2998 0.447266 89.0599 0.760231 89.5673 1.38616C90.0726 2.01209 90.3274 2.92193 90.3274 4.11343C90.3274 5.18646 90.1799 6.7334 89.8893 8.75426C90.8058 6.03146 91.9749 3.96589 93.3945 2.55755C94.8118 1.15144 96.4794 0.447266 98.393 0.447266C99.8997 0.447266 101.035 0.876475 101.8 1.73489C102.569 2.58884 102.953 3.7334 102.953 5.16857C102.953 5.98005 102.833 6.96365 102.596 8.11939L100.906 16.024C100.72 16.9428 100.628 17.7319 100.628 18.3936C100.628 19.1693 100.807 19.7505 101.165 20.1373C101.527 20.5262 102.032 20.7185 102.676 20.7185C103.284 20.7185 103.877 20.5173 104.456 20.1104C105.032 19.7058 105.719 19.0329 106.512 18.0896C106.731 17.8347 106.982 17.7051 107.263 17.7051C107.5 17.7051 107.688 17.8168 107.827 18.0359C107.963 18.2572 108.032 18.5613 108.032 18.948C108.032 19.6701 107.856 20.2423 107.505 20.6648C106.55 21.8228 105.602 22.6678 104.661 23.2043C103.725 23.7364 102.741 24.0002 101.71 24.0002C100.141 24.0002 98.9161 23.5352 98.0353 22.6052C97.1523 21.6753 96.7119 20.4301 96.7119 18.8675C96.7119 18.2595 96.7611 17.5978 96.8639 16.8824C96.9645 16.1626 97.1344 15.2505 97.3736 14.1462L98.4734 9.08511C98.5137 8.92416 98.5807 8.63355 98.6702 8.20881C98.7596 7.7796 98.8311 7.37721 98.8848 7.00166C98.9429 6.6261 98.9742 6.25501 98.9742 5.88392C98.9742 5.29376 98.8065 4.82655 98.4734 4.48005C98.1448 4.12908 97.6776 3.95248 97.0696 3.95248C95.9608 3.95248 94.8542 4.54264 93.7521 5.72297C92.6478 6.89882 91.6262 8.79897 90.6851 11.4279C89.7484 14.0523 89.0129 17.4055 88.4764 21.4875C88.3512 22.4309 88.1635 23.0858 87.9131 23.4547C87.6627 23.8191 87.1799 24.0002 86.4645 24.0002Z" fill="#004AAD"/>
<path d="M127.176 17.7042C127.413 17.7042 127.601 17.8159 127.739 18.035C127.883 18.2563 127.954 18.5603 127.954 18.9471C127.954 19.6691 127.777 20.2414 127.426 20.6639C126.394 21.8979 125.397 22.763 124.431 23.2571C123.465 23.7533 122.298 23.9992 120.935 23.9992C119.973 23.9992 119.088 23.8785 118.279 23.6416C117.474 23.4046 116.491 23.0469 115.328 22.5685C114.331 22.146 113.446 21.8062 112.672 21.5492C111.825 22.4679 111.063 23.1051 110.383 23.4627C109.704 23.8204 108.984 23.9992 108.228 23.9992C107.213 23.9992 106.404 23.7667 105.796 23.3018C105.188 22.8323 104.884 22.2176 104.884 21.4597C104.884 20.8875 105.072 20.3644 105.447 19.886C105.827 19.4098 106.359 19.0343 107.039 18.7593C107.723 18.4799 108.517 18.339 109.418 18.339C109.929 18.339 110.316 18.348 110.58 18.3659C114.186 13.877 117.443 9.13561 120.353 4.13934C118.773 3.86661 117.163 3.72802 115.525 3.72802C113.401 3.72802 111.85 3.97392 110.866 4.46125C109.883 4.95082 109.391 5.71982 109.391 6.76825C109.391 7.07898 109.427 7.34724 109.498 7.57302C109.574 7.79433 109.686 8.05141 109.829 8.34202C109.994 8.67734 110.079 8.9143 110.079 9.05737C110.079 9.42846 109.909 9.73695 109.57 9.98733C109.23 10.2332 108.839 10.3539 108.398 10.3539C107.933 10.3539 107.553 10.2176 107.263 9.94262C106.909 9.63412 106.628 9.20715 106.413 8.66393C106.203 8.11624 106.1 7.50148 106.1 6.8219C106.1 4.67138 106.994 3.07973 108.783 2.04694C110.571 1.01639 112.927 0.5 115.856 0.5C117.309 0.5 118.793 0.584947 120.309 0.750372C121.829 0.911326 123.253 1.17735 124.583 1.5462C125.131 1.69598 125.497 1.90387 125.683 2.17213C125.866 2.43592 125.96 2.77794 125.96 3.20045C125.96 3.70119 125.83 4.09016 125.576 4.36289C125.318 4.63785 124.961 4.77421 124.502 4.77421H124.306C122.314 8.01788 120.295 11.1319 118.252 14.1185C116.611 16.4925 115.462 18.1021 114.801 18.9471C115.867 19.1863 116.797 19.4076 117.59 19.6088C118.567 19.8726 119.354 20.0626 119.951 20.1811C120.552 20.3018 121.073 20.3599 121.516 20.3599C122.582 20.3599 123.497 20.1811 124.261 19.8234C125.023 19.4612 125.748 18.8823 126.434 18.0887C126.653 17.8338 126.901 17.7042 127.176 17.7042Z" fill="#004AAD"/>
<path d="M132.678 24.0002C131.409 24.0002 130.26 23.6872 129.236 23.0613C128.216 22.4353 127.412 21.53 126.822 20.3429C126.231 19.1581 125.936 17.7543 125.936 16.1313C125.936 13.337 126.535 10.7461 127.734 8.36082C128.932 5.97111 130.698 4.05531 133.036 2.6112C135.372 1.16932 138.18 0.447266 141.459 0.447266C142.304 0.447266 143.212 0.514329 144.178 0.643987C145.143 0.769173 146.022 0.961423 146.816 1.21627C147.334 1.36604 147.593 1.73489 147.593 2.32506C147.593 2.80345 147.41 3.25278 147.048 3.67528C146.69 4.10002 146.272 4.31015 145.796 4.31015C145.646 4.31015 145.537 4.30121 145.465 4.28333C144.504 4.06425 143.686 3.9033 143.006 3.80047C142.327 3.69987 141.607 3.64846 140.851 3.64846C138.513 3.64846 136.526 4.21626 134.887 5.34741C133.246 6.48079 132.021 7.97632 131.212 9.83623C130.401 11.6961 129.996 13.7036 129.996 15.8541C129.996 17.4234 130.302 18.635 130.917 19.4934C131.536 20.3474 132.343 20.7721 133.34 20.7721C134.46 20.7721 135.444 20.3139 136.291 19.3951C137.136 18.4718 137.909 16.9785 138.607 14.9152C139.309 12.8541 140.004 10.0553 140.69 6.5188C140.798 6.00687 141.015 5.65814 141.343 5.4726C141.676 5.28929 142.121 5.1954 142.675 5.1954C143.981 5.1954 144.634 5.62014 144.634 6.46514C144.634 6.61492 144.607 6.80046 144.553 7.01954C144.075 8.80344 143.637 10.7751 143.239 12.9391C142.845 15.103 142.649 16.7483 142.649 17.875C142.649 18.8653 142.794 19.5873 143.087 20.0389C143.384 20.4927 143.838 20.7185 144.446 20.7185C145.029 20.7185 145.591 20.5218 146.127 20.1283C146.664 19.7304 147.336 19.0508 148.148 18.0896C148.367 17.8347 148.615 17.7051 148.89 17.7051C149.127 17.7051 149.315 17.8168 149.453 18.0359C149.59 18.2572 149.659 18.5613 149.659 18.948C149.659 19.6701 149.485 20.2423 149.14 20.6648C148.233 21.7513 147.348 22.5784 146.485 23.1507C145.62 23.7185 144.562 24.0002 143.31 24.0002C142.023 24.0002 140.981 23.6291 140.19 22.8824C139.396 22.138 138.898 21.0851 138.696 19.7259C137.337 22.5762 135.33 24.0002 132.678 24.0002Z" fill="#004AAD"/>
<path d="M149.33 23.9998C148.518 23.9998 147.903 23.7807 147.488 23.3381C147.076 22.8977 146.871 22.3187 146.871 21.6034C146.871 20.7763 147.105 20.1146 147.577 19.6183C148.046 19.1176 148.706 18.8672 149.553 18.8672C150.362 18.8672 150.975 19.0684 151.386 19.4663C151.802 19.8597 152.012 20.441 152.012 21.21C152.012 22.0639 151.771 22.7435 151.288 23.2487C150.809 23.7494 150.157 23.9998 149.33 23.9998Z" fill="#004AAD"/>
</svg>
