<svg width="30" height="30" viewBox="0 0 30 30" fill="none" xmlns="http://www.w3.org/2000/svg">
<path d="M13.1885 1.79199C13.8935 0.233541 16.1065 0.233543 16.8115 1.79199L17.5918 3.51562C17.8412 4.06615 18.5219 4.26612 19.0293 3.9375L20.6172 2.90918C22.0528 1.97933 23.9145 3.17597 23.665 4.86816L23.3887 6.73926C23.3005 7.33736 23.7656 7.87402 24.3701 7.87207L26.2627 7.86523C27.9729 7.8595 28.8922 9.87255 27.7676 11.1611L26.5234 12.5859C26.1259 13.0414 26.2268 13.7441 26.7363 14.0693L28.332 15.0869C29.7738 16.0066 29.459 18.1967 27.8164 18.6729L25.999 19.1992C25.4183 19.3675 25.1238 20.0134 25.377 20.5625L26.1689 22.2803C26.8851 23.8336 25.4354 25.5063 23.7959 25.0186L21.9824 24.4795C21.403 24.3072 20.8058 24.6905 20.7217 25.2891L20.46 27.1631C20.2226 28.857 18.0989 29.4802 16.9834 28.1836L15.749 26.75C15.3547 26.2916 14.6453 26.2916 14.251 26.75L13.0166 28.1836C11.9011 29.4802 9.77744 28.857 9.54004 27.1631L9.27832 25.2891C9.1942 24.6905 8.59696 24.3072 8.01758 24.4795L6.2041 25.0186C4.56462 25.5063 3.11494 23.8336 3.83105 22.2803L4.62305 20.5625C4.8762 20.0134 4.58174 19.3675 4.00098 19.1992L2.18359 18.6729C0.541025 18.1967 0.226167 16.0066 1.66797 15.0869L3.26367 14.0693C3.77324 13.7441 3.87409 13.0414 3.47656 12.5859L2.23242 11.1611C1.10778 9.87255 2.02712 7.8595 3.7373 7.86523L5.62988 7.87207C6.23439 7.87402 6.6995 7.33736 6.61133 6.73926L6.33496 4.86816C6.08549 3.17597 7.94717 1.97933 9.38281 2.90918L10.9707 3.9375C11.4781 4.26612 12.1588 4.06615 12.4082 3.51562L13.1885 1.79199Z" fill="#E8BB20" stroke="white"/>
</svg>
