<svg width="17" height="21" viewBox="0 0 17 21" fill="none" xmlns="http://www.w3.org/2000/svg">
<path d="M0.725009 8.44698C0.369286 7.46249 0.191424 6.97024 0.267266 6.6548C0.350221 6.30979 0.595579 6.04081 0.909202 5.95109C1.19594 5.86905 1.64199 6.0673 2.53408 6.46379C3.32315 6.8145 3.71769 6.98985 4.08838 6.98009C4.49652 6.96935 4.88914 6.80567 5.20147 6.51607C5.48513 6.25305 5.67539 5.83391 6.05592 4.99562L6.89455 3.14819C7.59507 1.60498 7.94533 0.833374 8.5 0.833374C9.05467 0.833374 9.40493 1.60498 10.1055 3.14819L10.9441 4.99562C11.3246 5.83391 11.5149 6.25305 11.7985 6.51607C12.1109 6.80567 12.5035 6.96935 12.9116 6.98009C13.2823 6.98985 13.6768 6.8145 14.4659 6.46379C15.358 6.0673 15.8041 5.86905 16.0908 5.95109C16.4044 6.04081 16.6498 6.30979 16.7327 6.6548C16.8086 6.97024 16.6307 7.46249 16.275 8.44698L14.746 12.6787C14.0919 14.4889 13.7648 15.394 13.0804 15.9054C12.396 16.4167 11.5116 16.4167 9.74278 16.4167H7.25722C5.48838 16.4167 4.60396 16.4167 3.91956 15.9054C3.23516 15.394 2.90812 14.4889 2.25404 12.6787L0.725009 8.44698Z" fill="#DC091E"/>
<path d="M8.5 11.8334H8.50823" stroke="#E8BB20" stroke-width="2.75" stroke-linecap="round" stroke-linejoin="round"/>
<path d="M3.91699 19.1666H13.0837" stroke="#DC091E" stroke-width="2.0625" stroke-linecap="round"/>
</svg>
