<svg width="45" height="45" viewBox="0 0 45 45" fill="none" xmlns="http://www.w3.org/2000/svg">
<path d="M19.7822 3.1875C20.8397 0.849826 24.1603 0.84982 25.2178 3.1875L26.3867 5.77246C26.7606 6.59886 27.7827 6.89934 28.5439 6.40625L30.9258 4.86328C33.0792 3.46879 35.8722 5.26358 35.498 7.80176L35.084 10.6094C34.9519 11.5066 35.6488 12.3108 36.5557 12.3076L39.3936 12.2979C41.959 12.2889 43.3381 15.3082 41.6514 17.2412L39.7852 19.3789C39.1887 20.0623 39.3407 21.1168 40.1055 21.6045L42.498 23.1299C44.661 24.5094 44.1887 27.7956 41.7246 28.5098L38.999 29.2988C38.1279 29.5512 37.6849 30.5201 38.0645 31.3438L39.2529 33.9209C40.327 36.2509 38.1525 38.76 35.6934 38.0283L32.9736 37.2188C32.1044 36.9604 31.2089 37.5365 31.083 38.4346L30.6895 41.2441C30.3334 43.7851 27.1479 44.7204 25.4746 42.7754L23.624 40.624C23.0325 39.9367 21.9675 39.9367 21.376 40.624L19.5254 42.7754C17.8521 44.7204 14.6666 43.7851 14.3105 41.2441L13.917 38.4346C13.7911 37.5365 12.8956 36.9604 12.0264 37.2188L9.30664 38.0283C6.84745 38.76 4.67298 36.2509 5.74707 33.9209L6.93555 31.3438C7.3151 30.5201 6.87208 29.5512 6.00098 29.2988L3.27539 28.5098C0.811344 27.7956 0.338955 24.5094 2.50195 23.1299L4.89453 21.6045C5.65931 21.1168 5.81126 20.0623 5.21484 19.3789L3.34863 17.2412C1.66192 15.3082 3.04098 12.2889 5.60645 12.2979L8.44434 12.3076C9.35123 12.3108 10.0481 11.5066 9.91602 10.6094L9.50195 7.80176C9.12779 5.26358 11.9208 3.46878 14.0742 4.86328L16.4561 6.40625C17.2173 6.89934 18.2394 6.59885 18.6133 5.77246L19.7822 3.1875Z" fill="#FFCE23" stroke="white" stroke-width="1.5"/>
</svg>
