<svg width="18" height="14" viewBox="0 0 18 14" fill="none" xmlns="http://www.w3.org/2000/svg">
<path d="M16.6 11.8001L11.2857 7.0001M6.71429 7.0001L1.40003 11.8001M1 3.0001L7.53194 7.57245C8.06087 7.94271 8.32534 8.12784 8.61301 8.19954C8.86712 8.26288 9.13288 8.26288 9.38699 8.19954C9.67466 8.12784 9.93913 7.94271 10.4681 7.57245L17 3.0001M4.84 13.4001H13.16C14.5041 13.4001 15.1762 13.4001 15.6896 13.1385C16.1412 12.9084 16.5083 12.5413 16.7384 12.0897C17 11.5763 17 10.9042 17 9.5601V4.4401C17 3.09597 17 2.42391 16.7384 1.91052C16.5083 1.45893 16.1412 1.09178 15.6896 0.861682C15.1762 0.600098 14.5041 0.600098 13.16 0.600098H4.84C3.49587 0.600098 2.82381 0.600098 2.31042 0.861682C1.85883 1.09178 1.49168 1.45893 1.26158 1.91052C1 2.42391 1 3.09597 1 4.4401V9.5601C1 10.9042 1 11.5763 1.26158 12.0897C1.49168 12.5413 1.85883 12.9084 2.31042 13.1385C2.82381 13.4001 3.49587 13.4001 4.84 13.4001Z" stroke="white" stroke-width="1.2" stroke-linecap="round" stroke-linejoin="round"/>
</svg>
