<svg width="25" height="24" viewBox="0 0 25 24" fill="none" xmlns="http://www.w3.org/2000/svg">
<path d="M21.5 1.5H3.49531C2.67031 1.5 2 2.17969 2 3.01406V20.9859C2 21.8203 2.67031 22.5 3.49531 22.5H21.5C22.325 22.5 23 21.8203 23 20.9859V3.01406C23 2.17969 22.325 1.5 21.5 1.5ZM8.34687 19.5H5.23438V9.47812H8.35156V19.5H8.34687ZM6.79062 8.10938C5.79219 8.10938 4.98594 7.29844 4.98594 6.30469C4.98594 5.31094 5.79219 4.5 6.79062 4.5C7.78437 4.5 8.59531 5.31094 8.59531 6.30469C8.59531 7.30312 7.78906 8.10938 6.79062 8.10938ZM20.0141 19.5H16.9016V14.625C16.9016 13.4625 16.8781 11.9672 15.2844 11.9672C13.6625 11.9672 13.4141 13.2328 13.4141 14.5406V19.5H10.3016V9.47812H13.2875V10.8469H13.3297C13.7469 10.0594 14.7641 9.22969 16.2781 9.22969C19.4281 9.22969 20.0141 11.3062 20.0141 14.0062V19.5Z" fill="#3498DB"/>
</svg>
