<svg width="588" height="384" viewBox="0 0 588 384" fill="none" xmlns="http://www.w3.org/2000/svg">
<mask id="mask0_5387_10067" style="mask-type:luminance" maskUnits="userSpaceOnUse" x="102" y="0" width="384" height="384">
<path d="M486 0H102V384H486V0Z" fill="white"/>
</mask>
<g mask="url(#mask0_5387_10067)">
<path d="M293.998 344.32C378.829 344.32 447.598 275.551 447.598 190.72C447.598 105.889 378.829 37.1199 293.998 37.1199C209.168 37.1199 140.398 105.889 140.398 190.72C140.398 275.551 209.168 344.32 293.998 344.32Z" fill="url(#paint0_linear_5387_10067)"/>
<path d="M192.936 150.91C188.048 153.924 186.535 160.32 189.555 165.197C192.575 170.073 198.986 171.583 203.873 168.57L192.936 150.91ZM231.615 151.463C236.503 148.45 238.016 142.053 234.996 137.177C231.975 132.3 225.564 130.79 220.677 133.804L231.615 151.463ZM236.549 142.634C236.549 136.901 231.891 132.254 226.146 132.254C220.401 132.254 215.743 136.901 215.743 142.634H236.549ZM267.758 267C273.504 267 278.161 262.353 278.161 256.62C278.161 250.887 273.504 246.24 267.758 246.24V267ZM220.677 133.804C215.79 136.818 214.276 143.216 217.297 148.092C220.319 152.968 226.728 154.478 231.615 151.463L220.677 133.804ZM283.876 107.023L279.368 97.6682C279.038 97.8265 278.718 98.002 278.406 98.1941L283.876 107.023ZM307.124 107.023L312.594 98.1941C312.282 98.002 311.962 97.8265 311.632 97.6682L307.124 107.023ZM359.383 151.463C364.27 154.477 370.681 152.968 373.702 148.092C376.723 143.216 375.211 136.819 370.324 133.804L359.383 151.463ZM257.355 256.62C257.355 262.353 262.013 267 267.758 267C273.504 267 278.161 262.353 278.161 256.62H257.355ZM312.838 256.62C312.838 262.353 317.496 267 323.241 267C328.987 267 333.645 262.353 333.645 256.62H312.838ZM267.758 246.24C262.013 246.24 257.355 250.887 257.355 256.62C257.355 262.353 262.013 267 267.758 267V246.24ZM323.241 267C328.987 267 333.645 262.353 333.645 256.62C333.645 250.887 328.987 246.24 323.241 246.24V267ZM323.241 246.24C317.496 246.24 312.838 250.887 312.838 256.62C312.838 262.353 317.496 267 323.241 267V246.24ZM375.257 142.634C375.257 136.901 370.599 132.254 364.854 132.254C359.108 132.254 354.451 136.901 354.451 142.634H375.257ZM370.324 133.804C365.436 130.791 359.025 132.3 356.004 137.177C352.983 142.053 354.496 148.449 359.383 151.463L370.324 133.804ZM387.126 168.57C392.014 171.583 398.424 170.073 401.445 165.197C404.466 160.32 402.951 153.924 398.065 150.91L387.126 168.57ZM203.873 168.57L231.615 151.463L220.677 133.804L192.936 150.91L203.873 168.57ZM215.743 142.634V235.86H236.549V142.634H215.743ZM215.743 235.86C215.743 244.408 217.917 253.141 225.212 259.335C232.093 265.179 241.546 267 251.807 267V246.24C243.343 246.24 239.965 244.603 238.697 243.525C237.842 242.799 236.549 241.152 236.549 235.86H215.743ZM251.807 267H267.758V246.24H251.807V267ZM231.615 151.463L289.347 115.852L278.406 98.1941L220.677 133.804L231.615 151.463ZM288.384 116.378C292.881 114.221 298.119 114.221 302.616 116.378L311.632 97.6682C301.435 92.7773 289.565 92.7773 279.368 97.6682L288.384 116.378ZM301.653 115.852L359.383 151.463L370.324 133.804L312.594 98.1941L301.653 115.852ZM278.161 256.62V242.78H257.355V256.62H278.161ZM278.161 242.78C278.161 233.225 285.924 225.48 295.5 225.48V204.72C274.433 204.72 257.355 221.76 257.355 242.78H278.161ZM295.5 225.48C305.076 225.48 312.838 233.225 312.838 242.78H333.645C333.645 221.76 316.567 204.72 295.5 204.72V225.48ZM312.838 242.78V256.62H333.645V242.78H312.838ZM267.758 267H323.241V246.24H267.758V267ZM323.241 267H339.193V246.24H323.241V267ZM339.193 267C349.454 267 358.907 265.179 365.787 259.335C373.082 253.141 375.257 244.408 375.257 235.86H354.451C354.451 241.152 353.158 242.799 352.303 243.525C351.034 244.603 347.657 246.24 339.193 246.24V267ZM375.257 235.86V142.634H354.451V235.86H375.257ZM359.383 151.463L387.126 168.57L398.065 150.91L370.324 133.804L359.383 151.463Z" fill="black" fill-opacity="0.15"/>
<path d="M470.833 59.4229H393.93C390.347 59.4229 387.441 62.4795 387.441 66.2517V104.292C387.441 108.063 390.347 111.121 393.93 111.121H470.833C474.417 111.121 477.322 108.063 477.322 104.292V66.2517C477.322 62.4795 474.417 59.4229 470.833 59.4229Z" fill="white"/>
<path d="M406.641 93.4401C410.883 93.4401 414.321 90.002 414.321 85.7601C414.321 81.5182 410.883 78.0801 406.641 78.0801C402.399 78.0801 398.961 81.5182 398.961 85.7601C398.961 90.002 402.399 93.4401 406.641 93.4401Z" fill="#A0BFE8"/>
<path d="M432.239 78.0801H457.839C462.081 78.0801 465.519 81.5182 465.519 85.7601C465.519 90.002 462.081 93.4401 457.839 93.4401H432.239C427.997 93.4401 424.559 90.002 424.559 85.7601C424.559 81.5182 427.997 78.0801 432.239 78.0801Z" fill="#A0BFE8"/>
<path fill-rule="evenodd" clip-rule="evenodd" d="M338.937 288.721C355.423 288.721 370.744 283.734 383.475 275.186L435.57 324.917L454.464 302.997L404.194 255.009C413.478 241.943 418.937 225.97 418.937 208.721C418.937 164.539 383.119 128.721 338.937 128.721C294.754 128.721 258.938 164.539 258.938 208.721C258.938 252.904 294.754 288.721 338.937 288.721ZM407.173 208.721C407.173 246.127 376.849 276.451 339.443 276.451C302.038 276.451 271.714 246.127 271.714 208.721C271.714 171.315 302.038 140.992 339.443 140.992C376.849 140.992 407.173 171.315 407.173 208.721Z" fill="#3174CD"/>
<path d="M339.44 277.76C377.968 277.76 409.2 246.813 409.2 208.64C409.2 170.467 377.968 139.52 339.44 139.52C300.912 139.52 269.68 170.467 269.68 208.64C269.68 246.813 300.912 277.76 339.44 277.76Z" fill="white" fill-opacity="0.3"/>
<path d="M351.498 208.64L368.38 191.823C369.962 190.159 370.828 187.949 370.795 185.66C370.763 183.371 369.834 181.187 368.206 179.567C366.578 177.949 364.379 177.025 362.076 176.993C359.773 176.961 357.548 177.821 355.874 179.393L338.955 196.21L322.073 179.393C321.26 178.539 320.284 177.856 319.201 177.382C318.118 176.91 316.951 176.658 315.768 176.641C314.585 176.625 313.411 176.843 312.316 177.285C311.22 177.728 310.224 178.383 309.387 179.215C308.551 180.046 307.891 181.035 307.447 182.125C307.001 183.214 306.781 184.381 306.798 185.558C306.814 186.733 307.068 187.892 307.544 188.969C308.019 190.045 308.707 191.016 309.568 191.823L326.478 208.64L309.568 225.457C308.707 226.264 308.019 227.235 307.544 228.311C307.068 229.388 306.814 230.547 306.798 231.722C306.781 232.899 307.001 234.065 307.447 235.155C307.891 236.244 308.551 237.234 309.387 238.065C310.224 238.895 311.22 239.552 312.316 239.995C313.411 240.436 314.585 240.655 315.768 240.639C316.951 240.622 318.118 240.37 319.201 239.898C320.284 239.424 321.26 238.74 322.073 237.887L338.992 221.07L355.913 237.887C357.602 239.365 359.795 240.148 362.046 240.075C364.297 240.004 366.434 239.081 368.024 237.496C369.614 235.91 370.535 233.783 370.602 231.547C370.668 229.309 369.874 227.131 368.38 225.457L351.498 208.64Z" fill="#808080"/>
<path d="M435.57 324.919L454.464 302.998L457.31 305.715C460.071 308.351 461.723 312.032 461.905 315.952C462.087 319.87 460.781 323.703 458.278 326.609C455.773 329.515 452.274 331.254 448.551 331.445C444.827 331.635 441.184 330.262 438.423 327.627L435.578 324.91L435.57 324.919Z" fill="white"/>
<path d="M435.57 324.919L454.464 302.998L457.31 305.715C460.071 308.351 461.723 312.032 461.905 315.952C462.087 319.87 460.781 323.703 458.278 326.609C455.773 329.515 452.274 331.254 448.551 331.445C444.827 331.635 441.184 330.262 438.423 327.627L435.578 324.91L435.57 324.919Z" fill="#1B4071"/>
<path fill-rule="evenodd" clip-rule="evenodd" d="M174.082 116.7C174.059 114.875 173.83 113.033 173.372 111.18C171.765 104.675 164.6 100.498 156.974 99.5163C149.351 98.5345 141.423 100.769 138.368 106.428C136.62 109.663 136.38 112.451 137.094 114.802C137.804 117.141 139.491 119.079 141.781 120.59C148.166 124.798 159.348 125.656 164.45 123.898C166.809 123.082 169.115 122.101 171.358 120.977C170.076 128.332 165.294 135.299 158.912 141.577C145.042 155.223 123.52 165.581 111.799 169.389C111.169 169.594 110.819 170.291 111.015 170.949C111.211 171.607 111.881 171.976 112.51 171.771C124.463 167.887 146.405 157.31 160.549 143.393C167.856 136.206 173.062 128.114 173.952 119.607C190.47 110.39 204.034 93.6667 215.632 79.5918C216.064 79.0734 216.006 78.2836 215.506 77.8331C215.005 77.3864 214.252 77.4427 213.821 77.9649C202.695 91.4638 189.784 107.52 174.082 116.7ZM171.681 118.038C171.772 115.986 171.579 113.902 171.058 111.8C169.669 106.17 163.284 102.84 156.682 101.991C152.636 101.471 148.475 101.9 145.211 103.423C143.159 104.379 141.469 105.767 140.45 107.655C139.113 110.131 138.823 112.25 139.371 114.047C139.92 115.857 141.282 117.311 143.056 118.478C148.875 122.314 159.056 123.13 163.7 121.527C166.438 120.584 169.097 119.406 171.681 118.038Z" fill="#A0BFE8"/>
<path d="M466.797 243.2C471.039 243.2 474.477 239.761 474.477 235.52C474.477 231.278 471.039 227.84 466.797 227.84C462.556 227.84 459.117 231.278 459.117 235.52C459.117 239.761 462.556 243.2 466.797 243.2Z" fill="#A0BFE8"/>
<path fill-rule="evenodd" clip-rule="evenodd" d="M176.731 288.504C178.102 287.991 179.545 287.308 180.657 286.318C181.978 285.144 182.515 283.631 182.875 282.039C183.339 279.992 183.524 277.814 184.086 275.765C184.293 275.003 184.694 274.715 184.866 274.588C185.299 274.266 185.738 274.179 186.151 274.212C186.64 274.249 187.312 274.444 187.755 275.306C187.817 275.431 187.899 275.619 187.954 275.876C187.994 276.065 188.021 276.655 188.063 276.9C188.169 277.5 188.258 278.101 188.342 278.703C188.62 280.712 188.78 282.418 189.658 284.264C190.85 286.769 192.044 288.301 193.663 288.981C195.23 289.637 197.101 289.513 199.493 288.999C199.721 288.941 199.947 288.891 200.169 288.85C201.224 288.657 202.233 289.385 202.44 290.491C202.647 291.596 201.977 292.672 200.931 292.915C200.713 292.967 200.498 293.014 200.286 293.059C197.052 293.901 193.31 296.906 191.135 299.538C190.466 300.35 189.484 302.619 188.483 304.065C187.744 305.134 186.914 305.837 186.216 306.087C185.749 306.254 185.356 306.227 185.031 306.143C184.557 306.021 184.165 305.751 183.865 305.322C183.701 305.088 183.548 304.774 183.475 304.373C183.441 304.179 183.437 303.689 183.438 303.466C183.234 302.728 182.984 302.007 182.802 301.262C182.368 299.483 181.517 298.358 180.506 296.871C179.56 295.479 178.544 294.604 177.054 293.906C176.86 293.856 175.296 293.453 174.745 293.222C173.938 292.883 173.553 292.315 173.413 292.009C173.177 291.491 173.152 291.038 173.2 290.659C173.27 290.101 173.508 289.623 173.93 289.238C174.192 288.999 174.582 288.766 175.106 288.652C175.509 288.563 176.581 288.512 176.731 288.504ZM185.905 285.607C185.977 285.777 186.055 285.947 186.137 286.12C187.881 289.788 189.833 291.838 192.206 292.831L192.286 292.863C190.698 294.103 189.261 295.489 188.164 296.818C187.711 297.366 187.113 298.502 186.466 299.667C185.878 297.658 184.918 296.237 183.71 294.458C182.786 293.101 181.819 292.079 180.63 291.247C181.553 290.75 182.432 290.166 183.199 289.485C184.475 288.35 185.319 287.035 185.905 285.607Z" fill="#A0BFE8"/>
</g>
<defs>
<linearGradient id="paint0_linear_5387_10067" x1="292.811" y1="-12.896" x2="295.957" y2="526.524" gradientUnits="userSpaceOnUse">
<stop stop-color="#F2F2F2"/>
<stop offset="1" stop-color="#EFEFEF"/>
</linearGradient>
</defs>
</svg>
