<svg width="18" height="18" viewBox="0 0 18 18" fill="none" xmlns="http://www.w3.org/2000/svg">
<path d="M10.619 4.1746C11.3942 4.32584 12.1066 4.70496 12.6651 5.26344C13.2236 5.82191 13.6027 6.53433 13.7539 7.30952M10.619 1C12.2296 1.17892 13.7314 1.90014 14.8779 3.04524C16.0245 4.19035 16.7476 5.69127 16.9285 7.30158M7.58488 10.4151C6.63124 9.46149 5.87824 8.38321 5.32586 7.23271C5.27835 7.13375 5.25459 7.08427 5.23634 7.02166C5.17148 6.79916 5.21807 6.52594 5.353 6.3375C5.39097 6.28448 5.43633 6.23912 5.52705 6.14839C5.80452 5.87093 5.94325 5.73219 6.03395 5.59269C6.37601 5.06658 6.37601 4.38835 6.03395 3.86224C5.94325 3.72274 5.80452 3.58401 5.52705 3.30654L5.37239 3.15188C4.95061 2.7301 4.73972 2.51921 4.51323 2.40465C4.06279 2.17682 3.53083 2.17682 3.08039 2.40465C2.85389 2.51921 2.643 2.7301 2.22122 3.15188L2.09612 3.27699C1.67578 3.69732 1.46561 3.90749 1.3051 4.19323C1.12699 4.5103 0.998925 5.00275 1.00001 5.36642C1.00098 5.69416 1.06456 5.91814 1.1917 6.36611C1.87501 8.77357 3.16428 11.0453 5.0595 12.9405C6.95472 14.8357 9.22643 16.125 11.6339 16.8083C12.0819 16.9354 12.3058 16.999 12.6336 17C12.9972 17.0011 13.4897 16.873 13.8068 16.6949C14.0925 16.5344 14.3027 16.3242 14.723 15.9039L14.8481 15.7788C15.2699 15.357 15.4808 15.1461 15.5953 14.9196C15.8232 14.4692 15.8232 13.9372 15.5953 13.4868C15.4808 13.2603 15.2699 13.0494 14.8481 12.6276L14.6935 12.4729C14.416 12.1955 14.2773 12.0568 14.1378 11.966C13.6117 11.624 12.9334 11.624 12.4073 11.966C12.2678 12.0568 12.1291 12.1955 11.8516 12.4729C11.7609 12.5637 11.7155 12.609 11.6625 12.647C11.4741 12.7819 11.2008 12.8285 10.9783 12.7637C10.9157 12.7454 10.8662 12.7217 10.7673 12.6741C9.6168 12.1218 8.53851 11.3688 7.58488 10.4151Z" stroke="white" stroke-width="1.2" stroke-linecap="round" stroke-linejoin="round"/>
</svg>
