<svg width="18" height="11" viewBox="0 0 18 11" fill="none" xmlns="http://www.w3.org/2000/svg">
<path d="M16.7383 2.40021L17.4883 2.40021L17.4883 0.900209L16.7383 0.900209L16.7383 2.40021ZM8.38025 8.99069C8.1819 9.35433 8.31591 9.8099 8.67955 10.0082C9.04319 10.2066 9.49876 10.0726 9.6971 9.70894L8.38025 8.99069ZM8.26512 9.63073C8.4203 10.0148 8.85743 10.2003 9.24148 10.0451C9.62553 9.88996 9.81106 9.45283 9.65588 9.06878L8.26512 9.63073ZM1.2609 0.900146L0.510897 0.900146L0.510897 2.40015L1.2609 2.40015L1.2609 0.900146ZM16.7383 1.65021L16.7383 0.900209C15.6027 0.900209 14.5152 1.51385 13.5849 2.27184C12.6363 3.0448 11.7431 4.05706 10.9825 5.04143C10.2185 6.03022 9.56948 7.01528 9.11246 7.751C8.88351 8.11956 8.70169 8.42724 8.5766 8.6437C8.51403 8.75198 8.46559 8.83753 8.43247 8.8966C8.41592 8.92614 8.40319 8.94906 8.39443 8.9649C8.39006 8.97282 8.38667 8.97896 8.3843 8.98328C8.38312 8.98544 8.38218 8.98714 8.38151 8.98838C8.38117 8.989 8.38089 8.9895 8.38068 8.98988C8.38058 8.99008 8.38047 8.99028 8.38042 8.99037C8.38032 8.99055 8.38025 8.99069 9.03867 9.34982C9.6971 9.70894 9.69706 9.70903 9.69703 9.70908C9.69704 9.70906 9.69702 9.70908 9.69705 9.70904C9.69709 9.70896 9.6972 9.70876 9.69737 9.70845C9.69772 9.70782 9.69831 9.70673 9.69916 9.70519C9.70085 9.7021 9.70355 9.69721 9.70722 9.69056C9.71457 9.67726 9.72585 9.65694 9.74091 9.63009C9.77102 9.57637 9.81623 9.49651 9.87533 9.39424C9.99357 9.18964 10.1672 8.89578 10.3866 8.54251C10.8264 7.83454 11.4461 6.89471 12.1694 5.95859C12.8962 5.01806 13.7092 4.10542 14.5324 3.4347C15.3739 2.74901 16.1238 2.40021 16.7383 2.40021L16.7383 1.65021ZM8.9605 9.34975C9.65588 9.06878 9.6558 9.06857 9.65571 9.06834C9.65566 9.06823 9.65555 9.06796 9.65546 9.06773C9.65527 9.06726 9.65503 9.06668 9.65475 9.06597C9.65418 9.06457 9.65342 9.0627 9.65246 9.06038C9.65056 9.05572 9.6479 9.04924 9.64448 9.04097C9.63764 9.02445 9.62779 9.00082 9.61496 8.97056C9.5893 8.91004 9.55174 8.82294 9.50266 8.71306C9.40456 8.49339 9.26016 8.18205 9.07261 7.80947C8.69846 7.06619 8.14795 6.07 7.44522 5.06902C6.74522 4.07191 5.87605 3.04384 4.85746 2.25909C3.8378 1.4735 2.62584 0.900146 1.2609 0.900146L1.2609 1.65015L1.2609 2.40015C2.1902 2.40015 3.08781 2.78924 3.942 3.44733C4.79726 4.10626 5.56621 5.00309 6.21755 5.93088C6.86617 6.8548 7.38021 7.78351 7.73279 8.48391C7.9086 8.83317 8.0431 9.12336 8.13306 9.32476C8.17801 9.42541 8.21177 9.50374 8.23393 9.55601C8.24501 9.58214 8.25318 9.60175 8.2584 9.61436C8.26101 9.62066 8.26287 9.62522 8.264 9.62797C8.26456 9.62934 8.26493 9.63027 8.26512 9.63073C8.26522 9.63096 8.26526 9.63108 8.26526 9.63108C8.26526 9.63108 8.26523 9.63099 8.26523 9.63099C8.26518 9.63087 8.26512 9.63073 8.9605 9.34975Z" fill="#505050"/>
</svg>
