<svg width="1132" height="298" viewBox="0 0 1132 298" fill="none" xmlns="http://www.w3.org/2000/svg">
<g clip-path="url(#clip0_4470_8943)">
<path d="M78.9384 194.271V183.105H52.2547V194.271H28.1768V298H79.0427V194.271H78.9384ZM76.5411 295.496H30.6784V196.776H54.7563V185.61H76.4368V196.776H76.5411V295.496Z" fill="#EAF1FA"/>
<path d="M44.4729 204.603H35.2295V207.107H44.4729V204.603Z" fill="#EAF1FA"/>
<path d="M58.2317 204.603H48.9883V207.107H58.2317V204.603Z" fill="#EAF1FA"/>
<path d="M71.9905 204.603H62.7471V207.107H71.9905V204.603Z" fill="#EAF1FA"/>
<path d="M44.4729 215.455H35.2295V217.96H44.4729V215.455Z" fill="#EAF1FA"/>
<path d="M58.2317 215.455H48.9883V217.96H58.2317V215.455Z" fill="#EAF1FA"/>
<path d="M71.9905 215.455H62.7471V217.96H71.9905V215.455Z" fill="#EAF1FA"/>
<path d="M44.4729 226.309H35.2295V228.813H44.4729V226.309Z" fill="#EAF1FA"/>
<path d="M58.2317 226.309H48.9883V228.813H58.2317V226.309Z" fill="#EAF1FA"/>
<path d="M71.9905 226.309H62.7471V228.813H71.9905V226.309Z" fill="#EAF1FA"/>
<path d="M44.4729 237.161H35.2295V239.666H44.4729V237.161Z" fill="#EAF1FA"/>
<path d="M58.2317 237.161H48.9883V239.666H58.2317V237.161Z" fill="#EAF1FA"/>
<path d="M71.9905 237.161H62.7471V239.666H71.9905V237.161Z" fill="#EAF1FA"/>
<path d="M44.4729 248.014H35.2295V250.518H44.4729V248.014Z" fill="#EAF1FA"/>
<path d="M58.2317 248.014H48.9883V250.518H58.2317V248.014Z" fill="#EAF1FA"/>
<path d="M71.9905 248.014H62.7471V250.518H71.9905V248.014Z" fill="#EAF1FA"/>
<path d="M44.4729 258.867H35.2295V261.372H44.4729V258.867Z" fill="#EAF1FA"/>
<path d="M58.2317 258.867H48.9883V261.372H58.2317V258.867Z" fill="#EAF1FA"/>
<path d="M71.9905 258.867H62.7471V261.372H71.9905V258.867Z" fill="#EAF1FA"/>
<path d="M44.4729 269.721H35.2295V272.225H44.4729V269.721Z" fill="#EAF1FA"/>
<path d="M58.2317 269.721H48.9883V272.225H58.2317V269.721Z" fill="#EAF1FA"/>
<path d="M71.9905 269.721H62.7471V272.225H71.9905V269.721Z" fill="#EAF1FA"/>
<path d="M44.4729 280.572H35.2295V283.077H44.4729V280.572Z" fill="#EAF1FA"/>
<path d="M58.2317 280.572H48.9883V283.077H58.2317V280.572Z" fill="#EAF1FA"/>
<path d="M71.9905 280.572H62.7471V283.077H71.9905V280.572Z" fill="#EAF1FA"/>
<path d="M118.818 192.811V218.482H106.935V244.153H91.3002V269.824H76.499V298H159.26V192.811H118.818ZM156.759 295.496H79.0006V272.329H93.8018V246.658H109.437V220.986H121.319V195.315H156.759V295.496Z" fill="#EAF1FA"/>
<path d="M148.618 278.799H87.3389V281.303H148.618V278.799Z" fill="#EAF1FA"/>
<path d="M148.618 288.191H87.3389V290.696H148.618V288.191Z" fill="#EAF1FA"/>
<path d="M148.627 253.127H101.503V255.631H148.627V253.127Z" fill="#EAF1FA"/>
<path d="M148.627 262.52H101.503V265.024H148.627V262.52Z" fill="#EAF1FA"/>
<path d="M152.17 227.457H113.802V229.962H152.17V227.457Z" fill="#EAF1FA"/>
<path d="M152.17 236.848H113.802V239.352H152.17V236.848Z" fill="#EAF1FA"/>
<path d="M154.672 203.246H122.975V205.751H154.672V203.246Z" fill="#EAF1FA"/>
<path d="M154.672 212.638H122.975V215.142H154.672V212.638Z" fill="#EAF1FA"/>
<path d="M188.133 102.986V74.9287H185.631V102.986L156.759 133.666V298H217.006V133.666L188.133 102.986ZM214.504 295.495H159.26V134.659L186.882 105.309L214.504 134.659V295.495Z" fill="#EAF1FA"/>
<path d="M169.893 138.885V284.853H203.873V138.885L186.883 120.832L169.893 138.885ZM201.371 282.346H172.394V139.877L186.883 124.48L201.371 139.877V282.346Z" fill="#EAF1FA"/>
<path d="M273.083 295.495H226.804V298H273.083V295.495Z" fill="#EAF1FA"/>
<path d="M224.301 218.481H221.8V287.564H224.301V218.481Z" fill="#EAF1FA"/>
<path d="M231.806 218.481H229.305V287.564H231.806V218.481Z" fill="#EAF1FA"/>
<path d="M274.334 209.299V137.92H225.553V209.299H214.504V298H238.895V288.817H260.992V298H285.383V209.299H274.334ZM228.054 140.424H271.832V209.299H265.578V146.686H234.1V209.299H228.054V140.424ZM253.696 149.19V286.313H246.126V149.19H253.696ZM236.393 295.496H217.006V211.803H236.393V295.496ZM236.601 209.299V149.19H243.625V286.313H238.895V209.299H236.601ZM256.197 286.313V149.19H263.077V209.299H260.992V286.313H256.197ZM282.881 295.496H263.494V211.803H282.881V295.496Z" fill="#EAF1FA"/>
<path d="M270.79 218.481H268.288V287.564H270.79V218.481Z" fill="#EAF1FA"/>
<path d="M278.295 218.481H275.793V287.564H278.295V218.481Z" fill="#EAF1FA"/>
<path d="M305.317 233.508H289.761V236.012H305.317V233.508Z" fill="#EAF1FA"/>
<path d="M297.474 241.41H289.761V243.915H297.474V241.41Z" fill="#EAF1FA"/>
<path d="M305.317 249.312H289.761V251.817H305.317V249.312Z" fill="#EAF1FA"/>
<path d="M297.474 257.211H289.761V259.715H297.474V257.211Z" fill="#EAF1FA"/>
<path d="M305.317 265.113H289.761V267.618H305.317V265.113Z" fill="#EAF1FA"/>
<path d="M297.474 272.969H289.761V275.473H297.474V272.969Z" fill="#EAF1FA"/>
<path d="M315.611 280.916H289.761V283.421H315.611V280.916Z" fill="#EAF1FA"/>
<path d="M297.474 288.802H289.761V291.306H297.474V288.802Z" fill="#EAF1FA"/>
<path d="M305.314 241.41H300.224V243.915H305.314V241.41Z" fill="#EAF1FA"/>
<path d="M305.314 257.271H300.224V259.776H305.314V257.271Z" fill="#EAF1FA"/>
<path d="M305.314 272.969H300.224V275.473H305.314V272.969Z" fill="#EAF1FA"/>
<path d="M315.611 288.802H300.224V291.306H315.611V288.802Z" fill="#EAF1FA"/>
<path d="M312.066 272.954V226.412H282.881V298H325.408V272.954H312.066ZM322.906 295.495H285.382V228.917H309.565V275.459H322.906V295.495Z" fill="#EAF1FA"/>
<path d="M336.458 185.714H328.536V292.573H336.458V185.714ZM333.956 290.069H331.038V188.218H333.956V290.069Z" fill="#EAF1FA"/>
<path d="M347.089 156.444V173.611H331.246V180.289H322.907V298.002H366.685V167.452L347.089 156.446V156.444ZM339.585 295.495H325.409V182.792H339.585V295.495ZM342.086 295.495V180.287H333.748V176.113H347.089V295.495H342.086ZM364.184 295.495H349.612V173.609H349.591V160.721L364.184 168.917V295.497V295.495Z" fill="#EAF1FA"/>
<path d="M360.64 170.993L353.135 166.777V291.947H360.64V170.993ZM358.138 289.442H355.636V171.054L358.138 172.458V289.44V289.442Z" fill="#EAF1FA"/>
<path d="M395.454 175.696V249.371H386.906V243.11H364.184V298H432.561V175.696H395.454ZM378.151 245.614V295.496H372.943V245.614H378.151ZM366.685 245.614H370.442V295.496H366.685V245.614ZM384.405 295.496H380.652V245.614H384.405V295.496ZM430.059 295.496H386.906V251.875H397.955V178.201H430.059V295.496Z" fill="#EAF1FA"/>
<path d="M425.055 183.001H402.958V185.505H425.055V183.001Z" fill="#EAF1FA"/>
<path d="M425.055 192.394H402.958V194.898H425.055V192.394Z" fill="#EAF1FA"/>
<path d="M425.055 201.785H402.958V204.29H425.055V201.785Z" fill="#EAF1FA"/>
<path d="M425.055 211.177H402.958V213.681H425.055V211.177Z" fill="#EAF1FA"/>
<path d="M425.055 220.569H402.958V223.074H425.055V220.569Z" fill="#EAF1FA"/>
<path d="M425.055 229.961H402.958V232.465H425.055V229.961Z" fill="#EAF1FA"/>
<path d="M425.055 239.353H402.958V241.857H425.055V239.353Z" fill="#EAF1FA"/>
<path d="M425.055 248.745H402.958V251.25H425.055V248.745Z" fill="#EAF1FA"/>
<path d="M425.055 258.137H402.958V260.641H425.055V258.137Z" fill="#EAF1FA"/>
<path d="M425.055 267.528H402.958V270.033H425.055V267.528Z" fill="#EAF1FA"/>
<path d="M425.055 276.921H402.958V279.425H425.055V276.921Z" fill="#EAF1FA"/>
<path d="M425.055 286.312H402.958V288.817H425.055V286.312Z" fill="#EAF1FA"/>
<path d="M397.82 258.137H391.207V260.641H397.82V258.137Z" fill="#EAF1FA"/>
<path d="M397.82 267.528H391.207V270.033H397.82V267.528Z" fill="#EAF1FA"/>
<path d="M397.82 276.921H391.207V279.425H397.82V276.921Z" fill="#EAF1FA"/>
<path d="M397.82 286.312H391.207V288.817H397.82V286.312Z" fill="#EAF1FA"/>
<path d="M443.817 183.001H434.578V185.505H443.817V183.001Z" fill="#EAF1FA"/>
<path d="M443.817 192.393H434.578V194.897H443.817V192.393Z" fill="#EAF1FA"/>
<path d="M443.817 201.784H434.578V204.289H443.817V201.784Z" fill="#EAF1FA"/>
<path d="M443.817 211.177H434.578V213.681H443.817V211.177Z" fill="#EAF1FA"/>
<path d="M443.817 220.568H434.578V223.073H443.817V220.568Z" fill="#EAF1FA"/>
<path d="M443.817 229.961H434.578V232.465H443.817V229.961Z" fill="#EAF1FA"/>
<path d="M443.817 239.353H434.578V241.857H443.817V239.353Z" fill="#EAF1FA"/>
<path d="M443.817 248.744H434.578V251.249H443.817V248.744Z" fill="#EAF1FA"/>
<path d="M443.817 258.137H434.578V260.641H443.817V258.137Z" fill="#EAF1FA"/>
<path d="M443.817 267.528H434.578V270.033H443.817V267.528Z" fill="#EAF1FA"/>
<path d="M443.817 276.92H434.578V279.424H443.817V276.92Z" fill="#EAF1FA"/>
<path d="M443.817 286.312H434.578V288.817H443.817V286.312Z" fill="#EAF1FA"/>
<path d="M470.918 139.798H445.694V175.696H430.059V298H486.97V139.798H470.918ZM445.694 295.495H432.56V178.2H445.694V295.495ZM468.416 295.495H448.195V142.302H468.416V295.495ZM484.468 295.495H470.918V142.302H484.468V295.495Z" fill="#EAF1FA"/>
<path d="M456.271 286.312H451.739V288.817H456.271V286.312Z" fill="#EAF1FA"/>
<path d="M464.818 286.312H460.286V288.817H464.818V286.312Z" fill="#EAF1FA"/>
<path d="M456.271 276.92H451.739V279.424H456.271V276.92Z" fill="#EAF1FA"/>
<path d="M464.818 276.92H460.286V279.424H464.818V276.92Z" fill="#EAF1FA"/>
<path d="M456.271 267.528H451.739V270.033H456.271V267.528Z" fill="#EAF1FA"/>
<path d="M464.818 267.528H460.286V270.033H464.818V267.528Z" fill="#EAF1FA"/>
<path d="M456.271 258.137H451.739V260.641H456.271V258.137Z" fill="#EAF1FA"/>
<path d="M464.818 258.137H460.286V260.641H464.818V258.137Z" fill="#EAF1FA"/>
<path d="M456.271 248.744H451.739V251.249H456.271V248.744Z" fill="#EAF1FA"/>
<path d="M464.818 248.744H460.286V251.249H464.818V248.744Z" fill="#EAF1FA"/>
<path d="M456.271 239.353H451.739V241.857H456.271V239.353Z" fill="#EAF1FA"/>
<path d="M464.818 239.353H460.286V241.857H464.818V239.353Z" fill="#EAF1FA"/>
<path d="M456.271 229.961H451.739V232.465H456.271V229.961Z" fill="#EAF1FA"/>
<path d="M464.818 229.961H460.286V232.465H464.818V229.961Z" fill="#EAF1FA"/>
<path d="M456.271 220.568H451.739V223.073H456.271V220.568Z" fill="#EAF1FA"/>
<path d="M464.818 220.568H460.286V223.073H464.818V220.568Z" fill="#EAF1FA"/>
<path d="M456.271 211.177H451.739V213.681H456.271V211.177Z" fill="#EAF1FA"/>
<path d="M464.818 211.177H460.286V213.681H464.818V211.177Z" fill="#EAF1FA"/>
<path d="M456.271 201.784H451.739V204.289H456.271V201.784Z" fill="#EAF1FA"/>
<path d="M464.818 201.784H460.286V204.289H464.818V201.784Z" fill="#EAF1FA"/>
<path d="M456.271 192.393H451.739V194.897H456.271V192.393Z" fill="#EAF1FA"/>
<path d="M464.818 192.393H460.286V194.897H464.818V192.393Z" fill="#EAF1FA"/>
<path d="M456.271 183.001H451.739V185.505H456.271V183.001Z" fill="#EAF1FA"/>
<path d="M464.818 183.001H460.286V185.505H464.818V183.001Z" fill="#EAF1FA"/>
<path d="M456.271 173.608H451.739V176.113H456.271V173.608Z" fill="#EAF1FA"/>
<path d="M464.818 173.608H460.286V176.113H464.818V173.608Z" fill="#EAF1FA"/>
<path d="M456.271 164.217H451.739V166.721H456.271V164.217Z" fill="#EAF1FA"/>
<path d="M464.818 164.217H460.286V166.721H464.818V164.217Z" fill="#EAF1FA"/>
<path d="M456.271 154.825H451.739V157.33H456.271V154.825Z" fill="#EAF1FA"/>
<path d="M464.818 154.825H460.286V157.33H464.818V154.825Z" fill="#EAF1FA"/>
<path d="M456.271 145.433H451.739V147.937H456.271V145.433Z" fill="#EAF1FA"/>
<path d="M464.818 145.433H460.286V147.937H464.818V145.433Z" fill="#EAF1FA"/>
<path d="M538.335 180.079H505.605V182.584H538.335V180.079Z" fill="#EAF1FA"/>
<path d="M538.337 191.884H494.059V194.388H538.337V191.884Z" fill="#EAF1FA"/>
<path d="M524.912 203.686H494.059V206.19H524.912V203.686Z" fill="#EAF1FA"/>
<path d="M538.337 215.49H494.059V217.995H538.337V215.49Z" fill="#EAF1FA"/>
<path d="M538.335 227.295H505.605V229.799H538.335V227.295Z" fill="#EAF1FA"/>
<path d="M538.337 239.098H494.059V241.602H538.337V239.098Z" fill="#EAF1FA"/>
<path d="M524.912 250.902H494.059V253.407H524.912V250.902Z" fill="#EAF1FA"/>
<path d="M538.337 262.705H494.059V265.21H538.337V262.705Z" fill="#EAF1FA"/>
<path d="M538.335 274.51H505.605V277.014H538.335V274.51Z" fill="#EAF1FA"/>
<path d="M538.337 286.312H494.059V288.817H538.337V286.312Z" fill="#EAF1FA"/>
<path d="M501.249 180.079H494.059V182.584H501.249V180.079Z" fill="#EAF1FA"/>
<path d="M538.335 203.663H529.269V206.168H538.335V203.663Z" fill="#EAF1FA"/>
<path d="M501.249 227.248H494.059V229.753H501.249V227.248Z" fill="#EAF1FA"/>
<path d="M538.335 250.832H529.269V253.337H538.335V250.832Z" fill="#EAF1FA"/>
<path d="M501.249 274.416H494.059V276.921H501.249V274.416Z" fill="#EAF1FA"/>
<path d="M506.566 147.312V169.226H484.469V298H545.966V147.312H506.566ZM543.465 295.495H486.97V171.731H509.068V149.816H543.465V295.495Z" fill="#EAF1FA"/>
<path d="M538.337 161.877H513.936V164.381H538.337V161.877Z" fill="#EAF1FA"/>
<path d="M538.337 169.183H513.936V171.687H538.337V169.183Z" fill="#EAF1FA"/>
<path d="M538.337 154.781H513.936V157.286H538.337V154.781Z" fill="#EAF1FA"/>
<path d="M553.472 114.962H555.521V283.182H553.472V285.686H595.442V283.182H593.187V114.962H595.442V112.457H553.472V114.962ZM558.023 114.962H564.312V283.182H558.023V114.962ZM573.103 283.182H566.814V114.962H573.103V283.182ZM575.605 114.962H581.894V283.182H575.605V114.962ZM590.685 283.182H584.396V114.962H590.685V283.182Z" fill="#EAF1FA"/>
<path d="M576.194 84.6982V99.7253H543.465V298H606.422V84.6982H576.194ZM603.92 295.495H545.966V102.23H578.696V87.2028H603.92V295.495Z" fill="#EAF1FA"/>
<path d="M600.755 92.2119H581.712V94.7164H600.755V92.2119Z" fill="#EAF1FA"/>
<path d="M600.755 99.9336H581.712V102.438H600.755V99.9336Z" fill="#EAF1FA"/>
<path d="M603.92 156.703V298H661.457V156.703H603.92ZM606.422 164.425H616.636V208.463H606.422V164.425ZM631.438 265.232V295.495H619.138V265.232H631.438ZM633.939 265.232H646.239V295.495H633.939V265.232ZM606.422 262.728V260.432H658.955V262.728H606.422ZM631.438 215.768V257.927H619.138V215.768H631.438ZM633.939 257.927V215.768H646.239V257.927H633.939ZM606.422 213.263V210.968H658.955V213.263H606.422ZM633.939 208.463V164.425H646.239V208.463H633.939ZM631.438 208.463H619.138V164.425H631.438V208.463ZM606.422 215.768H616.636V257.927H606.422V215.768ZM606.422 265.232H616.636V295.495H606.422V265.232ZM658.955 295.495H648.74V265.232H658.955V295.495ZM658.955 257.927H648.74V215.768H658.955V257.927ZM658.955 208.463H648.74V164.425H658.955V208.463ZM606.422 161.921V159.208H658.955V161.921H606.422Z" fill="#EAF1FA"/>
<path d="M678.223 153.874L665.198 144.068V291.751H678.223V153.876V153.874ZM675.722 289.247H667.7V149.086L675.722 155.126V289.247Z" fill="#EAF1FA"/>
<path d="M718.145 112.444H691.565V114.949H718.145V112.444Z" fill="#EAF1FA"/>
<path d="M718.145 124.767H691.565V127.271H718.145V124.767Z" fill="#EAF1FA"/>
<path d="M718.145 137.089H691.565V139.593H718.145V137.089Z" fill="#EAF1FA"/>
<path d="M718.145 149.413H691.565V151.918H718.145V149.413Z" fill="#EAF1FA"/>
<path d="M718.145 161.735H691.565V164.24H718.145V161.735Z" fill="#EAF1FA"/>
<path d="M718.145 174.058H691.565V176.562H718.145V174.058Z" fill="#EAF1FA"/>
<path d="M718.145 186.38H691.565V188.884H718.145V186.38Z" fill="#EAF1FA"/>
<path d="M718.145 198.702H691.565V201.207H718.145V198.702Z" fill="#EAF1FA"/>
<path d="M718.145 211.024H691.565V213.529H718.145V211.024Z" fill="#EAF1FA"/>
<path d="M718.145 223.347H691.565V225.851H718.145V223.347Z" fill="#EAF1FA"/>
<path d="M718.145 235.669H691.565V238.173H718.145V235.669Z" fill="#EAF1FA"/>
<path d="M718.145 247.991H691.565V250.496H718.145V247.991Z" fill="#EAF1FA"/>
<path d="M718.145 260.315H691.565V262.82H718.145V260.315Z" fill="#EAF1FA"/>
<path d="M718.145 272.638H691.565V275.142H718.145V272.638Z" fill="#EAF1FA"/>
<path d="M718.145 284.96H691.565V287.464H718.145V284.96Z" fill="#EAF1FA"/>
<path d="M727.601 109.489V102.27H727.634V68.1563H714.851V41.3454H709.421V26.7378H706.919V41.3454H703.99V0H701.489V99.7654H682.112V148.979L658.955 131.548V298H747.97V125.407L727.601 109.487V109.489ZM681.966 295.495H661.457V136.563L681.966 152.003V295.495ZM703.988 43.8478H712.35V68.1542H709.256V99.7633H703.988V43.8478ZM725.1 99.7654V295.495H684.611V102.27H711.758V70.6608H725.131V99.7654H725.097H725.1ZM745.469 295.495H727.634V112.691L745.469 126.63V295.495Z" fill="#EAF1FA"/>
<path d="M741.726 128.459L731.376 120.369V291.751H741.726V128.459ZM739.225 289.247H733.878V125.501L739.225 129.682V289.247Z" fill="#EAF1FA"/>
<path d="M745.469 160.177V298.002H786.954V115.757L745.469 160.177ZM784.452 200.428H777.573V136.459H777.279L784.452 128.778V200.428ZM747.97 202.933H755.058V252.293H747.97V202.933ZM757.56 202.933H765.065V252.293H757.56V202.933ZM765.065 254.797V295.496H757.56V254.797H765.065ZM767.566 254.797H775.071V295.496H767.566V254.797ZM767.566 252.293V202.933H775.071V252.293H767.566ZM777.573 202.933H784.452V252.293H777.573V202.933ZM775.071 200.428H767.566V146.859L775.071 138.823V200.428ZM765.065 200.428H757.56V157.574L765.065 149.539V200.428ZM755.058 200.428H747.97V167.842L755.058 160.254V200.43V200.428ZM747.97 254.797H755.058V295.496H747.97V254.797ZM777.573 295.496V254.797H784.452V295.496H777.573ZM747.97 164.175V161.164L784.452 122.1V125.111L747.97 164.175Z" fill="#EAF1FA"/>
<path d="M814.384 176.53H792.999V179.035H814.384V176.53Z" fill="#EAF1FA"/>
<path d="M805.09 185.749H792.999V188.254H805.09V185.749Z" fill="#EAF1FA"/>
<path d="M814.384 194.968H792.999V197.472H814.384V194.968Z" fill="#EAF1FA"/>
<path d="M805.09 204.185H792.999V206.689H805.09V204.185Z" fill="#EAF1FA"/>
<path d="M814.384 213.403H792.999V215.908H814.384V213.403Z" fill="#EAF1FA"/>
<path d="M805.09 222.655H792.999V225.16H805.09V222.655Z" fill="#EAF1FA"/>
<path d="M814.384 231.838H792.999V234.342H814.384V231.838Z" fill="#EAF1FA"/>
<path d="M805.09 241.057H792.999V243.561H805.09V241.057Z" fill="#EAF1FA"/>
<path d="M814.384 250.275H792.999V252.78H814.384V250.275Z" fill="#EAF1FA"/>
<path d="M805.09 259.492H792.999V261.997H805.09V259.492Z" fill="#EAF1FA"/>
<path d="M814.384 268.711H792.999V271.215H814.384V268.711Z" fill="#EAF1FA"/>
<path d="M805.09 277.93H792.999V280.434H805.09V277.93Z" fill="#EAF1FA"/>
<path d="M814.384 287.146H792.999V289.651H814.384V287.146Z" fill="#EAF1FA"/>
<path d="M814.384 185.749H809.1V188.254H814.384V185.749Z" fill="#EAF1FA"/>
<path d="M814.384 204.115H809.1V206.62H814.384V204.115Z" fill="#EAF1FA"/>
<path d="M814.384 222.655H809.1V225.16H814.384V222.655Z" fill="#EAF1FA"/>
<path d="M814.384 241.021H809.1V243.526H814.384V241.021Z" fill="#EAF1FA"/>
<path d="M814.384 259.597H809.1V262.101H814.384V259.597Z" fill="#EAF1FA"/>
<path d="M814.384 277.963H809.1V280.467H814.384V277.963Z" fill="#EAF1FA"/>
<path d="M820.517 150.65V167.973H784.452V297.999H842.614V150.65H820.517ZM820.517 295.495H786.954V170.478H820.517V295.495ZM840.113 295.495H823.019V153.155H840.113V295.495Z" fill="#EAF1FA"/>
<path d="M835.943 157.955H827.188V290.694H835.943V157.955ZM833.442 288.19H829.689V160.46H833.442V288.19Z" fill="#EAF1FA"/>
<path d="M857.937 288.19H846.784V290.695H857.937V288.19Z" fill="#EAF1FA"/>
<path d="M857.937 280.886H846.784V283.39H857.937V280.886Z" fill="#EAF1FA"/>
<path d="M857.937 273.581H846.784V276.086H857.937V273.581Z" fill="#EAF1FA"/>
<path d="M857.937 266.276H846.784V268.781H857.937V266.276Z" fill="#EAF1FA"/>
<path d="M857.937 258.972H846.784V261.476H857.937V258.972Z" fill="#EAF1FA"/>
<path d="M874.51 290.695H894.94V195.732H874.51V290.695ZM882.986 288.191V198.237H886.461V288.191H882.986ZM892.438 288.191H888.963V198.237H892.438V288.191ZM877.011 198.237H880.486V288.191H877.011V198.237Z" fill="#EAF1FA"/>
<path d="M900.777 255.423V187.801H893.689V173.4H889.937V157.977H887.435V173.4H885.976V168.391H883.474V173.4H875.761V187.801H868.673V206.376H862.211V224.952H851.162V250.205H840.113V298H910.367V255.423H900.777ZM878.263 175.905H891.188V187.801H889.937V178.827H887.435V187.801H885.976V178.827H883.474V187.801H882.015V178.827H879.514V187.801H878.263V175.905ZM862.211 295.495H842.615V252.71H853.664V227.456H862.211V295.495ZM868.673 295.495H864.712V208.881H868.673V295.495ZM898.276 295.495H871.175V190.306H898.276V295.495ZM907.865 295.495H900.777V257.928H907.865V295.495Z" fill="#EAF1FA"/>
<path d="M950.188 198.654V190.306H916V198.654H907.865V298H958.523V198.654H950.188ZM918.501 192.81H947.687V198.654H918.501V192.81ZM916 201.159H956.021V202.233H910.367V201.159H916ZM910.367 295.495V204.738H926.002V295.495H910.367ZM928.503 295.495V204.738H937.884V295.495H928.503ZM940.386 295.495V204.738H956.021V295.495H940.386Z" fill="#EAF1FA"/>
<path d="M923.709 206.377H913.184V208.881H923.709V206.377Z" fill="#EAF1FA"/>
<path d="M923.709 213.055H913.184V215.559H923.709V213.055Z" fill="#EAF1FA"/>
<path d="M923.709 219.734H913.184V222.239H923.709V219.734Z" fill="#EAF1FA"/>
<path d="M923.709 226.412H913.184V228.917H923.709V226.412Z" fill="#EAF1FA"/>
<path d="M923.709 233.092H913.184V235.596H923.709V233.092Z" fill="#EAF1FA"/>
<path d="M923.709 239.77H913.184V242.274H923.709V239.77Z" fill="#EAF1FA"/>
<path d="M923.709 246.449H913.184V248.954H923.709V246.449Z" fill="#EAF1FA"/>
<path d="M923.709 253.127H913.184V255.631H923.709V253.127Z" fill="#EAF1FA"/>
<path d="M923.709 259.807H913.184V262.311H923.709V259.807Z" fill="#EAF1FA"/>
<path d="M923.709 266.484H913.184V268.989H923.709V266.484Z" fill="#EAF1FA"/>
<path d="M923.709 273.164H913.184V275.669H923.709V273.164Z" fill="#EAF1FA"/>
<path d="M923.709 279.842H913.184V282.346H923.709V279.842Z" fill="#EAF1FA"/>
<path d="M923.709 286.521H913.184V289.026H923.709V286.521Z" fill="#EAF1FA"/>
<path d="M953.52 206.376H942.994V208.88H953.52V206.376Z" fill="#EAF1FA"/>
<path d="M953.52 213.055H942.994V215.559H953.52V213.055Z" fill="#EAF1FA"/>
<path d="M953.52 219.733H942.994V222.238H953.52V219.733Z" fill="#EAF1FA"/>
<path d="M953.52 226.412H942.994V228.917H953.52V226.412Z" fill="#EAF1FA"/>
<path d="M953.52 233.091H942.994V235.595H953.52V233.091Z" fill="#EAF1FA"/>
<path d="M953.52 239.77H942.994V242.274H953.52V239.77Z" fill="#EAF1FA"/>
<path d="M953.52 246.448H942.994V248.953H953.52V246.448Z" fill="#EAF1FA"/>
<path d="M953.52 253.127H942.994V255.631H953.52V253.127Z" fill="#EAF1FA"/>
<path d="M953.52 259.806H942.994V262.31H953.52V259.806Z" fill="#EAF1FA"/>
<path d="M953.52 266.484H942.994V268.989H953.52V266.484Z" fill="#EAF1FA"/>
<path d="M953.52 273.163H942.994V275.668H953.52V273.163Z" fill="#EAF1FA"/>
<path d="M953.52 279.842H942.994V282.346H953.52V279.842Z" fill="#EAF1FA"/>
<path d="M953.52 286.521H942.994V289.025H953.52V286.521Z" fill="#EAF1FA"/>
<path d="M935.155 194.48H922.637V196.985H935.155V194.48Z" fill="#EAF1FA"/>
<path d="M943.548 194.48H937.463V196.985H943.548V194.48Z" fill="#EAF1FA"/>
<path d="M964.359 259.389H961.857V291.739H964.359V259.389Z" fill="#EAF1FA"/>
<path d="M971.447 259.389H968.945V291.739H971.447V259.389Z" fill="#EAF1FA"/>
<path d="M1012.31 253.127V262.728H1008.35V186.532L994.795 169.286L981.245 186.532V262.728H977.284V253.127H956.021V298H1033.57V253.127H1012.31ZM974.783 295.495H958.522V255.631H974.783V295.495ZM1012.31 295.495H977.284V265.232H983.747V187.4L994.795 173.339L1005.84 187.4V265.232H1012.31V295.495ZM1031.07 295.495H1014.81V255.631H1031.07V295.495Z" fill="#EAF1FA"/>
<path d="M1020.65 259.389H1018.14V291.739H1020.65V259.389Z" fill="#EAF1FA"/>
<path d="M1027.73 259.389H1025.23V291.739H1027.73V259.389Z" fill="#EAF1FA"/>
<path d="M991.668 190.097H987.499V292.991H1002.09V190.097H991.668ZM990.001 290.486V192.601H991.668V290.486H990.001ZM994.17 290.486V192.601H995.421V290.486H994.17ZM999.59 192.601V290.486H997.922V192.601H999.59Z" fill="#EAF1FA"/>
<path d="M1061.3 232.883V221.926H1040.24V232.883H1030.96V298.001H1103.82V232.883H1061.3ZM1042.74 224.43H1058.8V232.779H1042.74V224.43ZM1101.32 235.388V238.076H1033.47V235.388H1101.32ZM1033.47 295.496V240.58H1101.32V295.496H1033.47Z" fill="#EAF1FA"/>
<path d="M1093.29 244.049H1041.45V246.553H1093.29V244.049Z" fill="#EAF1FA"/>
<path d="M1056.29 254.641H1041.45V257.145H1056.29V254.641Z" fill="#EAF1FA"/>
<path d="M1093.29 265.232H1041.45V267.737H1093.29V265.232Z" fill="#EAF1FA"/>
<path d="M1056.29 275.825H1041.45V278.33H1056.29V275.825Z" fill="#EAF1FA"/>
<path d="M1074.84 254.641H1060V257.145H1074.84V254.641Z" fill="#EAF1FA"/>
<path d="M1074.84 275.825H1060V278.33H1074.84V275.825Z" fill="#EAF1FA"/>
<path d="M1093.19 254.641H1078.35V257.145H1093.19V254.641Z" fill="#EAF1FA"/>
<path d="M1093.19 275.825H1078.35V278.33H1093.19V275.825Z" fill="#EAF1FA"/>
<path d="M1093.29 286.417H1041.45V288.922H1093.29V286.417Z" fill="#EAF1FA"/>
<path d="M1132 295.495H0V298H1132V295.495Z" fill="#EAF1FA"/>
<path d="M115.773 67.2958H104.545C102.821 67.2958 101.418 65.895 101.418 64.1717C101.418 62.4485 102.777 61.0915 104.465 61.0488C104.775 58.9678 106.576 57.3652 108.744 57.3652C110.912 57.3652 112.716 58.97 113.024 61.053C113.083 61.0488 113.142 61.0466 113.201 61.0466C114.16 61.0466 115.011 61.6136 115.405 62.4442C115.526 62.4261 115.648 62.4165 115.772 62.4165C117.117 62.4165 118.213 63.5108 118.213 64.8551C118.213 66.1993 117.117 67.2937 115.772 67.2937L115.773 67.2958ZM104.545 62.33C103.528 62.33 102.7 63.1564 102.7 64.1728C102.7 65.1892 103.528 66.0156 104.545 66.0156H115.773C116.412 66.0156 116.931 65.4967 116.931 64.8583C116.931 64.2198 116.412 63.7009 115.773 63.7009C115.598 63.7009 115.427 63.7415 115.263 63.8205C115.078 63.9101 114.861 63.9069 114.68 63.8098C114.498 63.7126 114.374 63.5343 114.346 63.3315C114.269 62.7613 113.777 62.3321 113.201 62.3321C113.028 62.3321 112.861 62.3705 112.701 62.4464C112.498 62.5435 112.259 62.5264 112.071 62.4026C111.883 62.2787 111.774 62.0652 111.785 61.8399C111.787 61.7908 111.788 61.7417 111.788 61.6904C111.788 60.0131 110.422 58.6486 108.743 58.6486C107.064 58.6486 105.699 60.0131 105.699 61.6904V61.7129C105.71 61.9114 105.628 62.1026 105.476 62.2317C105.324 62.3609 105.122 62.4122 104.928 62.3716C104.8 62.3449 104.671 62.331 104.544 62.331L104.545 62.33Z" fill="#BFD4F0"/>
<path d="M987.383 144.67H973.917C972.267 144.67 970.925 143.329 970.925 141.68C970.925 140.032 972.267 138.691 973.917 138.691H973.924C974.035 136.729 975.668 135.167 977.658 135.167C978.444 135.167 979.199 135.412 979.825 135.858C980.494 134.779 981.679 134.1 983.001 134.1C984.867 134.1 986.418 135.472 986.697 137.259C986.921 137.217 987.15 137.196 987.383 137.196C989.446 137.196 991.124 138.872 991.124 140.933C991.124 142.993 989.446 144.67 987.383 144.67ZM973.917 139.972C972.975 139.972 972.207 140.738 972.207 141.68C972.207 142.622 972.975 143.388 973.917 143.388H987.383C988.738 143.388 989.841 142.287 989.841 140.933C989.841 139.579 988.738 138.477 987.383 138.477C987.025 138.477 986.68 138.553 986.356 138.702C986.148 138.798 985.905 138.776 985.718 138.644C985.531 138.511 985.428 138.29 985.45 138.062C985.457 137.982 985.46 137.908 985.46 137.837C985.46 136.483 984.357 135.381 983.002 135.381C981.917 135.381 980.973 136.077 980.653 137.112C980.584 137.336 980.397 137.504 980.167 137.551C979.936 137.598 979.699 137.514 979.548 137.334C979.079 136.771 978.391 136.449 977.66 136.449C976.305 136.449 975.202 137.55 975.202 138.904C975.202 138.931 975.2 138.958 975.196 138.983L975.134 139.482C975.112 139.664 975.012 139.828 974.86 139.931C974.708 140.035 974.519 140.068 974.34 140.023C974.203 139.988 974.061 139.971 973.919 139.971L973.917 139.972Z" fill="#BFD4F0"/>
</g>
<defs>
<clipPath id="clip0_4470_8943">
<rect width="1132" height="298" fill="white"/>
</clipPath>
</defs>
</svg>
